<svg width="35" height="39" viewBox="0 0 35 39" fill="none" xmlns="http://www.w3.org/2000/svg">
<g id="Group">
<g id="Group_2">
<path id="Vector" d="M0.62281 30.0065C8.05459 40.2524 23.2336 40.3335 30.6863 30.0851C36.7228 21.7345 34.6627 10.0894 26.1772 4.26623C21.2572 0.848767 14.9628 0.0542814 9.32812 2.0634C5.88186 3.30552 2.85836 5.55417 0.624119 8.46641L0.542969 8.40882C0.681709 8.20201 1.04558 7.69679 1.18039 7.49784C1.32175 7.31067 1.72619 6.81854 1.8754 6.62744C2.34921 6.08557 2.90025 5.50705 3.42249 5.01753C3.95782 4.53455 4.57299 4.01886 5.15544 3.59871C5.74705 3.1838 6.42504 2.74925 7.0533 2.39847C7.90931 1.93513 8.87394 1.49404 9.79277 1.17337C15.54 -0.882871 22.1328 0.0398841 27.0738 3.63536C32.0266 7.16539 35.0252 13.164 34.9532 19.2371C34.8773 32.4908 21.5281 41.6647 9.15666 36.8585C8.49568 36.5954 7.76533 36.2577 7.13183 35.9253C6.5075 35.5876 5.82427 35.1635 5.23397 34.7604C4.65414 34.3507 4.02588 33.8507 3.48793 33.3821C3.21961 33.1504 2.94475 32.8573 2.67905 32.619C2.51413 32.4554 2.08744 31.9869 1.91728 31.8102C1.64635 31.4803 1.2262 31.0052 0.984059 30.661L0.542969 30.0654L0.62281 30.0065Z" fill="#00AFE7"/>
</g>
<g id="Group_3">
<path id="Vector_2" d="M9.57205 10.2361H14.1675L21.4906 27.5629H16.3782L15.1492 24.4661H8.4883L7.25927 27.5629H2.27246L9.57205 10.2361ZM13.75 20.7555L11.8338 15.8891L9.89272 20.7555H13.75Z" fill="#1A2A55"/>
<g id="Group_4">
<path id="Vector_3" d="M9.57205 10.2361H14.1675L21.4906 27.5629H16.3782L15.1492 24.4661H8.48961L7.26058 27.5629H2.27246L9.57205 10.2361ZM13.75 20.7555L11.8325 15.8891L9.89141 20.7555H13.75Z" fill="#1A2A55"/>
<g id="Group_5">
<g id="Clip path group">
<mask id="mask0_329_57135" style="mask-type:luminance" maskUnits="userSpaceOnUse" x="2" y="10" width="20" height="18">
<g id="SVGID_00000094588604947225186920000011518068082436523955_">
<path id="Vector_4" d="M9.57205 10.2361H14.1675L21.4906 27.5629H16.3782L15.1492 24.4661H8.48961L7.26058 27.5629H2.27246L9.57205 10.2361ZM13.75 20.7555L11.8325 15.8891L9.89141 20.7555H13.75Z" fill="white"/>
</g>
</mask>
<g mask="url(#mask0_329_57135)">
<g id="Group_6">
<g id="Group_7">
<g id="Group_8">
<path id="Vector_5" d="M2.88584 15.4193H2.73139V11.918L1.80078 10.9874V0.986328H1.95654V10.9233L2.88584 11.8539V15.4193Z" fill="white"/>
<path id="Vector_6" d="M4.7458 10.9559H4.59135V6.27403L5.52065 5.34342V2.61835L4.63586 1.73355H3.92383V1.5791H4.69999L5.67641 2.55421V5.40755L4.7458 6.33816V10.9559Z" fill="white"/>
<path id="Vector_7" d="M4.69933 16.613H3.7373V16.4585H4.63519L5.51999 15.5737V8.16553H5.67575V15.6379L4.69933 16.613Z" fill="white"/>
<path id="Vector_8" d="M4.7458 14.6757H4.59135V13.7779L3.66075 12.8473V9.12744L2.73145 8.19814V5.34348L3.683 4.39062L3.79294 4.50057L2.88589 5.40762V8.134L3.8165 9.0633V12.7831L4.7458 13.7137V14.6757Z" fill="white"/>
<path id="Vector_9" d="M2.80801 15.8694C2.66272 15.8694 2.54492 15.7516 2.54492 15.6063C2.54492 15.4611 2.66272 15.3433 2.80801 15.3433C2.95329 15.3433 3.07109 15.4611 3.07109 15.6063C3.07109 15.7503 2.95329 15.8694 2.80801 15.8694ZM2.80801 15.4977C2.7478 15.4977 2.69937 15.5461 2.69937 15.6063C2.69937 15.6666 2.7478 15.715 2.80801 15.715C2.86821 15.715 2.91664 15.6666 2.91664 15.6063C2.91664 15.5461 2.86821 15.4977 2.80801 15.4977Z" fill="white"/>
<path id="Vector_10" d="M3.73769 15.8694C3.59241 15.8694 3.47461 15.7516 3.47461 15.6063C3.47461 15.4611 3.59241 15.3433 3.73769 15.3433C3.88298 15.3433 4.00078 15.4611 4.00078 15.6063C4.00209 15.7503 3.88298 15.8694 3.73769 15.8694ZM3.73769 15.4977C3.67748 15.4977 3.62906 15.5461 3.62906 15.6063C3.62906 15.6666 3.67748 15.715 3.73769 15.715C3.7979 15.715 3.84633 15.6666 3.84633 15.6063C3.84633 15.5461 3.7979 15.4977 3.73769 15.4977Z" fill="white"/>
<path id="Vector_11" d="M3.73769 14.9388C3.59241 14.9388 3.47461 14.821 3.47461 14.6757C3.47461 14.5304 3.59241 14.4126 3.73769 14.4126C3.88298 14.4126 4.00078 14.5304 4.00078 14.6757C4.00209 14.821 3.88298 14.9388 3.73769 14.9388ZM3.73769 14.567C3.67748 14.567 3.62906 14.6155 3.62906 14.6757C3.62906 14.7359 3.67748 14.7843 3.73769 14.7843C3.7979 14.7843 3.84633 14.7359 3.84633 14.6757C3.84633 14.6155 3.7979 14.567 3.73769 14.567Z" fill="white"/>
<path id="Vector_12" d="M4.65761 15.8694C4.51233 15.8694 4.39453 15.7516 4.39453 15.6063C4.39453 15.4611 4.51233 15.3433 4.65761 15.3433C4.8029 15.3433 4.9207 15.4611 4.9207 15.6063C4.9207 15.7503 4.8029 15.8694 4.65761 15.8694ZM4.65761 15.4977C4.59741 15.4977 4.54898 15.5461 4.54898 15.6063C4.54898 15.6666 4.59741 15.715 4.65761 15.715C4.71782 15.715 4.76625 15.6666 4.76625 15.6063C4.76494 15.5461 4.71651 15.4977 4.65761 15.4977Z" fill="white"/>
<path id="Vector_13" d="M5.59218 16.804C5.4469 16.804 5.3291 16.6862 5.3291 16.5409C5.3291 16.3956 5.4469 16.2778 5.59218 16.2778C5.73747 16.2778 5.85527 16.3956 5.85527 16.5409C5.85658 16.6862 5.73747 16.804 5.59218 16.804ZM5.59218 16.4323C5.53198 16.4323 5.48355 16.4807 5.48355 16.5409C5.48355 16.6011 5.53198 16.6496 5.59218 16.6496C5.65239 16.6496 5.70082 16.6011 5.70082 16.5409C5.70082 16.4807 5.65239 16.4323 5.59218 16.4323Z" fill="white"/>
<path id="Vector_14" d="M4.66836 11.4048C4.52307 11.4048 4.40527 11.287 4.40527 11.1417C4.40527 10.9965 4.52307 10.8787 4.66836 10.8787C4.81364 10.8787 4.93144 10.9965 4.93144 11.1417C4.93144 11.287 4.81364 11.4048 4.66836 11.4048ZM4.66836 11.0331C4.60815 11.0331 4.55972 11.0815 4.55972 11.1417C4.55972 11.202 4.60815 11.2504 4.66836 11.2504C4.72857 11.2504 4.77699 11.202 4.77699 11.1417C4.77699 11.0815 4.72857 11.0331 4.66836 11.0331Z" fill="white"/>
<path id="Vector_15" d="M2.80801 11.4048C2.66272 11.4048 2.54492 11.287 2.54492 11.1417C2.54492 10.9965 2.66272 10.8787 2.80801 10.8787C2.95329 10.8787 3.07109 10.9965 3.07109 11.1417C3.07109 11.287 2.95329 11.4048 2.80801 11.4048ZM2.80801 11.0331C2.7478 11.0331 2.69937 11.0815 2.69937 11.1417C2.69937 11.202 2.7478 11.2504 2.80801 11.2504C2.86821 11.2504 2.91664 11.202 2.91664 11.1417C2.91664 11.0815 2.86821 11.0331 2.80801 11.0331Z" fill="white"/>
<path id="Vector_16" d="M3.73773 16.5356C3.73773 16.6796 3.62124 16.7961 3.47726 16.7961C3.33329 16.7961 3.2168 16.6796 3.2168 16.5356C3.2168 16.3916 3.33329 16.2751 3.47726 16.2751C3.62124 16.2751 3.73773 16.3916 3.73773 16.5356Z" fill="white"/>
<path id="Vector_17" d="M3.06878 16.5356C3.06878 16.6796 2.95229 16.7961 2.80832 16.7961C2.66434 16.7961 2.54785 16.6796 2.54785 16.5356C2.54785 16.3916 2.66434 16.2751 2.80832 16.2751C2.95229 16.2751 3.06878 16.3916 3.06878 16.5356Z" fill="white"/>
<path id="Vector_18" d="M4.92816 14.9362C4.92816 15.0802 4.81167 15.1967 4.66769 15.1967C4.52372 15.1967 4.40723 15.0802 4.40723 14.9362C4.40723 14.7923 4.52372 14.6758 4.66769 14.6758C4.81167 14.6758 4.92816 14.7923 4.92816 14.9362Z" fill="white"/>
<path id="Vector_19" d="M5.42816 12.8249C5.42816 12.9689 5.31167 13.0854 5.16769 13.0854C5.02372 13.0854 4.90723 12.9689 4.90723 12.8249C4.90723 12.6809 5.02372 12.5645 5.16769 12.5645C5.31167 12.5645 5.42816 12.6809 5.42816 12.8249Z" fill="white"/>
<path id="Vector_20" d="M3.99847 13.7373C3.99847 13.8812 3.88198 13.9977 3.738 13.9977C3.59403 13.9977 3.47754 13.8812 3.47754 13.7373C3.47754 13.5933 3.59403 13.4768 3.738 13.4768C3.88198 13.4768 3.99847 13.5933 3.99847 13.7373Z" fill="white"/>
<path id="Vector_21" d="M2.56909 16.4061L1.80078 15.6378V13.0854H1.95654V15.5736L2.67904 16.2961L2.56909 16.4061Z" fill="white"/>
<path id="Vector_22" d="M2.8872 9.16406H2.73145V10.9546H2.8872V9.16406Z" fill="white"/>
<path id="Vector_23" d="M4.4068 15.5278H3.92383V15.6836H4.4068V15.5278Z" fill="white"/>
<path id="Vector_24" d="M4.24941 12.1548C4.10413 12.1548 3.98633 12.037 3.98633 11.8917C3.98633 11.7465 4.10413 11.6287 4.24941 11.6287C4.3947 11.6287 4.51249 11.7465 4.51249 11.8917C4.5138 12.0357 4.3947 12.1548 4.24941 12.1548ZM4.24941 11.7831C4.1892 11.7831 4.14078 11.8315 4.14078 11.8917C4.14078 11.952 4.1892 12.0004 4.24941 12.0004C4.30962 12.0004 4.35805 11.952 4.35805 11.8917C4.35805 11.8315 4.30962 11.7831 4.24941 11.7831Z" fill="white"/>
<path id="Vector_25" d="M5.16933 12.1548C5.02405 12.1548 4.90625 12.037 4.90625 11.8917C4.90625 11.7465 5.02405 11.6287 5.16933 11.6287C5.31462 11.6287 5.43242 11.7465 5.43242 11.8917C5.43242 12.0357 5.31462 12.1548 5.16933 12.1548ZM5.16933 11.7831C5.10913 11.7831 5.0607 11.8315 5.0607 11.8917C5.0607 11.952 5.10913 12.0004 5.16933 12.0004C5.22954 12.0004 5.27797 11.952 5.27797 11.8917C5.27797 11.8315 5.22823 11.7831 5.16933 11.7831Z" fill="white"/>
<path id="Vector_26" d="M4.91852 11.8132H4.43555V11.969H4.91852V11.8132Z" fill="white"/>
</g>
<g id="Group_9">
<path id="Vector_27" d="M7.23252 15.4193H7.07676V11.918L6.14746 10.9874V0.986328H6.30191V10.9233L7.23252 11.8539V15.4193Z" fill="white"/>
<path id="Vector_28" d="M9.09248 10.9559H8.93672V6.27403L9.86733 5.34342V2.61835L8.98253 1.73355H8.27051V1.5791H9.04667L10.0218 2.55421V5.40755L9.09248 6.33816V10.9559Z" fill="white"/>
<path id="Vector_29" d="M9.04601 16.613H8.08398V16.4585H8.98187L9.86667 15.5737V8.16553H10.0211V15.6379L9.04601 16.613Z" fill="white"/>
<path id="Vector_30" d="M9.09184 14.6757H8.93608V13.7779L8.00678 12.8473V9.12744L7.07617 8.19814V5.34348L8.02903 4.39062L8.13898 4.50057L7.23193 5.40762V8.134L8.16123 9.0633V12.7831L9.09184 13.7137V14.6757Z" fill="white"/>
<path id="Vector_31" d="M7.15371 15.8694C7.00842 15.8694 6.89062 15.7516 6.89062 15.6063C6.89062 15.4611 7.00842 15.3433 7.15371 15.3433C7.29899 15.3433 7.41679 15.4611 7.41679 15.6063C7.4181 15.7503 7.3003 15.8694 7.15371 15.8694ZM7.15371 15.4977C7.0935 15.4977 7.04507 15.5461 7.04507 15.6063C7.04507 15.6666 7.0935 15.715 7.15371 15.715C7.21392 15.715 7.26234 15.6666 7.26234 15.6063C7.26234 15.5461 7.21392 15.4977 7.15371 15.4977Z" fill="white"/>
<path id="Vector_32" d="M8.08437 15.8694C7.93909 15.8694 7.82129 15.7516 7.82129 15.6063C7.82129 15.4611 7.93909 15.3433 8.08437 15.3433C8.22966 15.3433 8.34746 15.4611 8.34746 15.6063C8.34746 15.7503 8.22966 15.8694 8.08437 15.8694ZM8.08437 15.4977C8.02416 15.4977 7.97574 15.5461 7.97574 15.6063C7.97574 15.6666 8.02416 15.715 8.08437 15.715C8.14458 15.715 8.19301 15.6666 8.19301 15.6063C8.19301 15.5461 8.14458 15.4977 8.08437 15.4977Z" fill="white"/>
<path id="Vector_33" d="M8.08437 14.9388C7.93909 14.9388 7.82129 14.821 7.82129 14.6757C7.82129 14.5304 7.93909 14.4126 8.08437 14.4126C8.22966 14.4126 8.34746 14.5304 8.34746 14.6757C8.34746 14.821 8.22966 14.9388 8.08437 14.9388ZM8.08437 14.567C8.02416 14.567 7.97574 14.6155 7.97574 14.6757C7.97574 14.7359 8.02416 14.7843 8.08437 14.7843C8.14458 14.7843 8.19301 14.7359 8.19301 14.6757C8.19301 14.6155 8.14458 14.567 8.08437 14.567Z" fill="white"/>
<path id="Vector_34" d="M9.00332 15.8694C8.85803 15.8694 8.74023 15.7516 8.74023 15.6063C8.74023 15.4611 8.85803 15.3433 9.00332 15.3433C9.1486 15.3433 9.2664 15.4611 9.2664 15.6063C9.26771 15.7503 9.1486 15.8694 9.00332 15.8694ZM9.00332 15.4977C8.94311 15.4977 8.89468 15.5461 8.89468 15.6063C8.89468 15.6666 8.94311 15.715 9.00332 15.715C9.06353 15.715 9.11195 15.6666 9.11195 15.6063C9.11195 15.5461 9.06353 15.4977 9.00332 15.4977Z" fill="white"/>
<path id="Vector_35" d="M9.93887 16.804C9.79358 16.804 9.67578 16.6862 9.67578 16.5409C9.67578 16.3956 9.79358 16.2778 9.93887 16.2778C10.0842 16.2778 10.2019 16.3956 10.2019 16.5409C10.2019 16.6862 10.0842 16.804 9.93887 16.804ZM9.93887 16.4323C9.87866 16.4323 9.83023 16.4807 9.83023 16.5409C9.83023 16.6011 9.87866 16.6496 9.93887 16.6496C9.99907 16.6496 10.0475 16.6011 10.0475 16.5409C10.0475 16.4807 9.99777 16.4323 9.93887 16.4323Z" fill="white"/>
<path id="Vector_36" d="M9.01308 11.4048C8.8678 11.4048 8.75 11.287 8.75 11.1417C8.75 10.9965 8.8678 10.8787 9.01308 10.8787C9.15837 10.8787 9.27617 10.9965 9.27617 11.1417C9.27748 11.287 9.15968 11.4048 9.01308 11.4048ZM9.01308 11.0331C8.95287 11.0331 8.90445 11.0815 8.90445 11.1417C8.90445 11.202 8.95287 11.2504 9.01308 11.2504C9.07329 11.2504 9.12172 11.202 9.12172 11.1417C9.12172 11.0815 9.07329 11.0331 9.01308 11.0331Z" fill="white"/>
<path id="Vector_37" d="M7.15371 11.4048C7.00842 11.4048 6.89062 11.287 6.89062 11.1417C6.89062 10.9965 7.00842 10.8787 7.15371 10.8787C7.29899 10.8787 7.41679 10.9965 7.41679 11.1417C7.4181 11.287 7.3003 11.4048 7.15371 11.4048ZM7.15371 11.0331C7.0935 11.0331 7.04507 11.0815 7.04507 11.1417C7.04507 11.202 7.0935 11.2504 7.15371 11.2504C7.21392 11.2504 7.26234 11.202 7.26234 11.1417C7.26234 11.0815 7.21392 11.0331 7.15371 11.0331Z" fill="white"/>
<path id="Vector_38" d="M8.08441 16.5356C8.08441 16.6796 7.96792 16.7961 7.82394 16.7961C7.67997 16.7961 7.56348 16.6796 7.56348 16.5356C7.56348 16.3916 7.67997 16.2751 7.82394 16.2751C7.96792 16.2751 8.08441 16.3916 8.08441 16.5356Z" fill="white"/>
<path id="Vector_39" d="M7.41449 16.5356C7.41449 16.6796 7.298 16.7961 7.15402 16.7961C7.01004 16.7961 6.89355 16.6796 6.89355 16.5356C6.89355 16.3916 7.01004 16.2751 7.15402 16.2751C7.298 16.2751 7.41449 16.3916 7.41449 16.5356Z" fill="white"/>
<path id="Vector_40" d="M9.27386 14.9362C9.27386 15.0802 9.15737 15.1967 9.0134 15.1967C8.86942 15.1967 8.75293 15.0802 8.75293 14.9362C8.75293 14.7923 8.86942 14.6758 9.0134 14.6758C9.15737 14.6758 9.27386 14.7923 9.27386 14.9362Z" fill="white"/>
<path id="Vector_41" d="M9.77484 12.8249C9.77484 12.9689 9.65835 13.0854 9.51437 13.0854C9.3704 13.0854 9.25391 12.9689 9.25391 12.8249C9.25391 12.6809 9.3704 12.5645 9.51437 12.5645C9.65835 12.5645 9.77484 12.6809 9.77484 12.8249Z" fill="white"/>
<path id="Vector_42" d="M8.34515 13.7373C8.34515 13.8812 8.22866 13.9977 8.08468 13.9977C7.94071 13.9977 7.82422 13.8812 7.82422 13.7373C7.82422 13.5933 7.94071 13.4768 8.08468 13.4768C8.22866 13.4768 8.34515 13.5933 8.34515 13.7373Z" fill="white"/>
<path id="Vector_43" d="M6.4848 12.8249C6.4848 12.9689 6.36831 13.0854 6.22433 13.0854C6.08036 13.0854 5.96387 12.9689 5.96387 12.8249C5.96387 12.6809 6.08036 12.5645 6.22433 12.5645C6.36831 12.5645 6.4848 12.6809 6.4848 12.8249Z" fill="white"/>
<path id="Vector_44" d="M6.91577 16.4061L6.14746 15.6378V13.0854H6.30191V15.5736L7.02571 16.2961L6.91577 16.4061Z" fill="white"/>
<path id="Vector_45" d="M7.23193 9.16406H7.07617V10.9546H7.23193V9.16406Z" fill="white"/>
<path id="Vector_46" d="M8.75348 15.5278H8.27051V15.6836H8.75348V15.5278Z" fill="white"/>
<path id="Vector_47" d="M8.59609 12.1548C8.45081 12.1548 8.33301 12.037 8.33301 11.8917C8.33301 11.7465 8.45081 11.6287 8.59609 11.6287C8.74138 11.6287 8.85917 11.7465 8.85917 11.8917C8.85917 12.0357 8.74138 12.1548 8.59609 12.1548ZM8.59609 11.7831C8.53588 11.7831 8.48745 11.8315 8.48745 11.8917C8.48745 11.952 8.53588 12.0004 8.59609 12.0004C8.6563 12.0004 8.70473 11.952 8.70473 11.8917C8.70473 11.8315 8.6563 11.7831 8.59609 11.7831Z" fill="white"/>
<path id="Vector_48" d="M9.51504 12.1548C9.36975 12.1548 9.25195 12.037 9.25195 11.8917C9.25195 11.7465 9.36975 11.6287 9.51504 11.6287C9.66032 11.6287 9.77812 11.7465 9.77812 11.8917C9.77943 12.0357 9.66032 12.1548 9.51504 12.1548ZM9.51504 11.7831C9.45483 11.7831 9.4064 11.8315 9.4064 11.8917C9.4064 11.952 9.45483 12.0004 9.51504 12.0004C9.57524 12.0004 9.62367 11.952 9.62367 11.8917C9.62367 11.8315 9.57524 11.7831 9.51504 11.7831Z" fill="white"/>
<path id="Vector_49" d="M9.2652 11.8132H8.78223V11.969H9.2652V11.8132Z" fill="white"/>
</g>
<g id="Group_10">
<path id="Vector_50" d="M11.5772 15.4193H11.4228V11.918L10.4922 10.9874V0.986328H10.6479V10.9233L11.5772 11.8539V15.4193Z" fill="white"/>
<path id="Vector_51" d="M13.4379 10.9559H13.2834V6.27403L14.2127 5.34342V2.61835L13.3279 1.73355H12.6172V1.5791H13.3934L14.3685 2.55421V5.40755L13.4379 6.33816V10.9559Z" fill="white"/>
<path id="Vector_52" d="M13.3927 16.613H12.4307V16.4585H13.3272L14.212 15.5737V8.16553H14.3678V15.6379L13.3927 16.613Z" fill="white"/>
<path id="Vector_53" d="M13.4372 14.6757H13.2828V13.7779L12.3522 12.8473V9.12744L11.4229 8.19814V5.34348L12.3757 4.39062L12.4857 4.50057L11.5773 5.40762V8.134L12.5079 9.0633V12.7831L13.4372 13.7137V14.6757Z" fill="white"/>
<path id="Vector_54" d="M11.5004 15.8694C11.3551 15.8694 11.2373 15.7516 11.2373 15.6063C11.2373 15.4611 11.3551 15.3433 11.5004 15.3433C11.6457 15.3433 11.7635 15.4611 11.7635 15.6063C11.7635 15.7503 11.6457 15.8694 11.5004 15.8694ZM11.5004 15.4977C11.4402 15.4977 11.3918 15.5461 11.3918 15.6063C11.3918 15.6666 11.4402 15.715 11.5004 15.715C11.5606 15.715 11.609 15.6666 11.609 15.6063C11.609 15.5461 11.5606 15.4977 11.5004 15.4977Z" fill="white"/>
<path id="Vector_55" d="M12.4311 15.8694C12.2858 15.8694 12.168 15.7516 12.168 15.6063C12.168 15.4611 12.2858 15.3433 12.4311 15.3433C12.5763 15.3433 12.6941 15.4611 12.6941 15.6063C12.6941 15.7503 12.5763 15.8694 12.4311 15.8694ZM12.4311 15.4977C12.3708 15.4977 12.3224 15.5461 12.3224 15.6063C12.3224 15.6666 12.3708 15.715 12.4311 15.715C12.4913 15.715 12.5397 15.6666 12.5397 15.6063C12.5384 15.5461 12.49 15.4977 12.4311 15.4977Z" fill="white"/>
<path id="Vector_56" d="M12.4311 14.9388C12.2858 14.9388 12.168 14.821 12.168 14.6757C12.168 14.5304 12.2858 14.4126 12.4311 14.4126C12.5763 14.4126 12.6941 14.5304 12.6941 14.6757C12.6941 14.821 12.5763 14.9388 12.4311 14.9388ZM12.4311 14.567C12.3708 14.567 12.3224 14.6155 12.3224 14.6757C12.3224 14.7359 12.3708 14.7843 12.4311 14.7843C12.4913 14.7843 12.5397 14.7359 12.5397 14.6757C12.5384 14.6155 12.49 14.567 12.4311 14.567Z" fill="white"/>
<path id="Vector_57" d="M13.35 15.8694C13.2047 15.8694 13.0869 15.7516 13.0869 15.6063C13.0869 15.4611 13.2047 15.3433 13.35 15.3433C13.4953 15.3433 13.6131 15.4611 13.6131 15.6063C13.6131 15.7503 13.4953 15.8694 13.35 15.8694ZM13.35 15.4977C13.2898 15.4977 13.2414 15.5461 13.2414 15.6063C13.2414 15.6666 13.2898 15.715 13.35 15.715C13.4102 15.715 13.4586 15.6666 13.4586 15.6063C13.4586 15.5461 13.4089 15.4977 13.35 15.4977Z" fill="white"/>
<path id="Vector_58" d="M14.2846 16.804C14.1393 16.804 14.0215 16.6862 14.0215 16.5409C14.0215 16.3956 14.1393 16.2778 14.2846 16.2778C14.4299 16.2778 14.5476 16.3956 14.5476 16.5409C14.549 16.6862 14.4299 16.804 14.2846 16.804ZM14.2846 16.4323C14.2244 16.4323 14.1759 16.4807 14.1759 16.5409C14.1759 16.6011 14.2244 16.6496 14.2846 16.6496C14.3448 16.6496 14.3932 16.6011 14.3932 16.5409C14.3932 16.4807 14.3448 16.4323 14.2846 16.4323Z" fill="white"/>
<path id="Vector_59" d="M13.3598 11.4048C13.2145 11.4048 13.0967 11.287 13.0967 11.1417C13.0967 10.9965 13.2145 10.8787 13.3598 10.8787C13.505 10.8787 13.6228 10.9965 13.6228 11.1417C13.6228 11.287 13.505 11.4048 13.3598 11.4048ZM13.3598 11.0331C13.2996 11.0331 13.2511 11.0815 13.2511 11.1417C13.2511 11.202 13.2996 11.2504 13.3598 11.2504C13.42 11.2504 13.4684 11.202 13.4684 11.1417C13.4684 11.0815 13.42 11.0331 13.3598 11.0331Z" fill="white"/>
<path id="Vector_60" d="M11.5004 11.4048C11.3551 11.4048 11.2373 11.287 11.2373 11.1417C11.2373 10.9965 11.3551 10.8787 11.5004 10.8787C11.6457 10.8787 11.7635 10.9965 11.7635 11.1417C11.7635 11.287 11.6457 11.4048 11.5004 11.4048ZM11.5004 11.0331C11.4402 11.0331 11.3918 11.0815 11.3918 11.1417C11.3918 11.202 11.4402 11.2504 11.5004 11.2504C11.5606 11.2504 11.609 11.202 11.609 11.1417C11.609 11.0815 11.5606 11.0331 11.5004 11.0331Z" fill="white"/>
<path id="Vector_61" d="M12.4311 16.5356C12.4311 16.6796 12.3146 16.7961 12.1706 16.7961C12.0266 16.7961 11.9102 16.6796 11.9102 16.5356C11.9102 16.3916 12.0266 16.2751 12.1706 16.2751C12.3146 16.2751 12.4311 16.3916 12.4311 16.5356Z" fill="white"/>
<path id="Vector_62" d="M11.7612 16.5356C11.7612 16.6796 11.6447 16.7961 11.5007 16.7961C11.3567 16.7961 11.2402 16.6796 11.2402 16.5356C11.2402 16.3916 11.3567 16.2751 11.5007 16.2751C11.6447 16.2751 11.7612 16.3916 11.7612 16.5356Z" fill="white"/>
<path id="Vector_63" d="M13.6205 14.9362C13.6205 15.0802 13.5041 15.1967 13.3601 15.1967C13.2161 15.1967 13.0996 15.0802 13.0996 14.9362C13.0996 14.7923 13.2161 14.6758 13.3601 14.6758C13.5041 14.6758 13.6205 14.7923 13.6205 14.9362Z" fill="white"/>
<path id="Vector_64" d="M14.1215 12.8249C14.1215 12.9689 14.005 13.0854 13.8611 13.0854C13.7171 13.0854 13.6006 12.9689 13.6006 12.8249C13.6006 12.6809 13.7171 12.5645 13.8611 12.5645C14.005 12.5645 14.1215 12.6809 14.1215 12.8249Z" fill="white"/>
<path id="Vector_65" d="M12.6918 13.7373C12.6918 13.8812 12.5753 13.9977 12.4314 13.9977C12.2874 13.9977 12.1709 13.8812 12.1709 13.7373C12.1709 13.5933 12.2874 13.4768 12.4314 13.4768C12.574 13.4768 12.6918 13.5933 12.6918 13.7373Z" fill="white"/>
<path id="Vector_66" d="M10.8315 12.8249C10.8315 12.9689 10.715 13.0854 10.571 13.0854C10.427 13.0854 10.3105 12.9689 10.3105 12.8249C10.3105 12.6809 10.427 12.5645 10.571 12.5645C10.715 12.5645 10.8315 12.6809 10.8315 12.8249Z" fill="white"/>
<path id="Vector_67" d="M11.2618 16.4061L10.4922 15.6378V13.0854H10.6479V15.5736L11.3704 16.2961L11.2618 16.4061Z" fill="white"/>
<path id="Vector_68" d="M11.5786 9.16406H11.4229V10.9546H11.5786V9.16406Z" fill="white"/>
<path id="Vector_69" d="M13.1002 15.5278H12.6172V15.6836H13.1002V15.5278Z" fill="white"/>
<path id="Vector_70" d="M12.9428 12.1548C12.7975 12.1548 12.6797 12.037 12.6797 11.8917C12.6797 11.7465 12.7975 11.6287 12.9428 11.6287C13.0881 11.6287 13.2059 11.7465 13.2059 11.8917C13.2059 12.0357 13.0881 12.1548 12.9428 12.1548ZM12.9428 11.7831C12.8826 11.7831 12.8341 11.8315 12.8341 11.8917C12.8341 11.952 12.8826 12.0004 12.9428 12.0004C13.003 12.0004 13.0514 11.952 13.0514 11.8917C13.0514 11.8315 13.0017 11.7831 12.9428 11.7831Z" fill="white"/>
<path id="Vector_71" d="M13.8617 12.1548C13.7164 12.1548 13.5986 12.037 13.5986 11.8917C13.5986 11.7465 13.7164 11.6287 13.8617 11.6287C14.007 11.6287 14.1248 11.7465 14.1248 11.8917C14.1248 12.0357 14.007 12.1548 13.8617 12.1548ZM13.8617 11.7831C13.8015 11.7831 13.7531 11.8315 13.7531 11.8917C13.7531 11.952 13.8015 12.0004 13.8617 12.0004C13.9219 12.0004 13.9704 11.952 13.9704 11.8917C13.9704 11.8315 13.9206 11.7831 13.8617 11.7831Z" fill="white"/>
<path id="Vector_72" d="M13.6119 11.8132H13.1289V11.969H13.6119V11.8132Z" fill="white"/>
</g>
<g id="Group_11">
<path id="Vector_73" d="M15.9249 15.4193H15.7691V11.918L14.8398 10.9874V0.986328H14.9943V10.9233L15.9249 11.8539V15.4193Z" fill="white"/>
<path id="Vector_74" d="M17.7849 10.9559H17.6291V6.27403L18.5597 5.34342V2.61835L17.6749 1.73355H16.9629V1.5791H17.7391L18.7142 2.55421V5.40755L17.7849 6.33816V10.9559Z" fill="white"/>
<path id="Vector_75" d="M17.7384 16.613H16.7764V16.4585H17.6743L18.5591 15.5737V8.16553H18.7135V15.6379L17.7384 16.613Z" fill="white"/>
<path id="Vector_76" d="M17.7842 14.6757H17.6285V13.7779L16.6992 12.8473V9.12744L15.7686 8.19814V5.34348L16.7214 4.39062L16.8314 4.50057L15.9243 5.40762V8.134L16.8536 9.0633V12.7831L17.7842 13.7137V14.6757Z" fill="white"/>
<path id="Vector_77" d="M15.8471 15.8694C15.7018 15.8694 15.584 15.7516 15.584 15.6063C15.584 15.4611 15.7018 15.3433 15.8471 15.3433C15.9924 15.3433 16.1102 15.4611 16.1102 15.6063C16.1102 15.7503 15.9924 15.8694 15.8471 15.8694ZM15.8471 15.4977C15.7869 15.4977 15.7384 15.5461 15.7384 15.6063C15.7384 15.6666 15.7869 15.715 15.8471 15.715C15.9073 15.715 15.9557 15.6666 15.9557 15.6063C15.9544 15.5461 15.906 15.4977 15.8471 15.4977Z" fill="white"/>
<path id="Vector_78" d="M16.7768 15.8694C16.6315 15.8694 16.5137 15.7516 16.5137 15.6063C16.5137 15.4611 16.6315 15.3433 16.7768 15.3433C16.922 15.3433 17.0398 15.4611 17.0398 15.6063C17.0411 15.7503 16.922 15.8694 16.7768 15.8694ZM16.7768 15.4977C16.7165 15.4977 16.6681 15.5461 16.6681 15.6063C16.6681 15.6666 16.7165 15.715 16.7768 15.715C16.837 15.715 16.8854 15.6666 16.8854 15.6063C16.8854 15.5461 16.837 15.4977 16.7768 15.4977Z" fill="white"/>
<path id="Vector_79" d="M16.7768 14.9388C16.6315 14.9388 16.5137 14.821 16.5137 14.6757C16.5137 14.5304 16.6315 14.4126 16.7768 14.4126C16.922 14.4126 17.0398 14.5304 17.0398 14.6757C17.0411 14.821 16.922 14.9388 16.7768 14.9388ZM16.7768 14.567C16.7165 14.567 16.6681 14.6155 16.6681 14.6757C16.6681 14.7359 16.7165 14.7843 16.7768 14.7843C16.837 14.7843 16.8854 14.7359 16.8854 14.6757C16.8854 14.6155 16.837 14.567 16.7768 14.567Z" fill="white"/>
<path id="Vector_80" d="M17.6957 15.8694C17.5504 15.8694 17.4326 15.7516 17.4326 15.6063C17.4326 15.4611 17.5504 15.3433 17.6957 15.3433C17.841 15.3433 17.9588 15.4611 17.9588 15.6063C17.9601 15.7503 17.841 15.8694 17.6957 15.8694ZM17.6957 15.4977C17.6355 15.4977 17.5871 15.5461 17.5871 15.6063C17.5871 15.6666 17.6355 15.715 17.6957 15.715C17.7559 15.715 17.8043 15.6666 17.8043 15.6063C17.8043 15.5461 17.7559 15.4977 17.6957 15.4977Z" fill="white"/>
<path id="Vector_81" d="M18.6312 16.804C18.486 16.804 18.3682 16.6862 18.3682 16.5409C18.3682 16.3956 18.486 16.2778 18.6312 16.2778C18.7765 16.2778 18.8943 16.3956 18.8943 16.5409C18.8943 16.6862 18.7765 16.804 18.6312 16.804ZM18.6312 16.4323C18.571 16.4323 18.5226 16.4807 18.5226 16.5409C18.5226 16.6011 18.571 16.6496 18.6312 16.6496C18.6915 16.6496 18.7399 16.6011 18.7399 16.5409C18.7399 16.4807 18.6915 16.4323 18.6312 16.4323Z" fill="white"/>
<path id="Vector_82" d="M17.7074 11.4048C17.5621 11.4048 17.4443 11.287 17.4443 11.1417C17.4443 10.9965 17.5621 10.8787 17.7074 10.8787C17.8527 10.8787 17.9705 10.9965 17.9705 11.1417C17.9705 11.287 17.8527 11.4048 17.7074 11.4048ZM17.7074 11.0331C17.6472 11.0331 17.5988 11.0815 17.5988 11.1417C17.5988 11.202 17.6472 11.2504 17.7074 11.2504C17.7676 11.2504 17.8161 11.202 17.8161 11.1417C17.8161 11.0815 17.7663 11.0331 17.7074 11.0331Z" fill="white"/>
<path id="Vector_83" d="M15.8471 11.4048C15.7018 11.4048 15.584 11.287 15.584 11.1417C15.584 10.9965 15.7018 10.8787 15.8471 10.8787C15.9924 10.8787 16.1102 10.9965 16.1102 11.1417C16.1102 11.287 15.9924 11.4048 15.8471 11.4048ZM15.8471 11.0331C15.7869 11.0331 15.7384 11.0815 15.7384 11.1417C15.7384 11.202 15.7869 11.2504 15.8471 11.2504C15.9073 11.2504 15.9557 11.202 15.9557 11.1417C15.9557 11.0815 15.906 11.0331 15.8471 11.0331Z" fill="white"/>
<path id="Vector_84" d="M16.7768 16.5356C16.7768 16.6796 16.6603 16.7961 16.5163 16.7961C16.3723 16.7961 16.2559 16.6796 16.2559 16.5356C16.2559 16.3916 16.3723 16.2751 16.5163 16.2751C16.6603 16.2751 16.7768 16.3916 16.7768 16.5356Z" fill="white"/>
<path id="Vector_85" d="M16.1078 16.5356C16.1078 16.6796 15.9914 16.7961 15.8474 16.7961C15.7034 16.7961 15.5869 16.6796 15.5869 16.5356C15.5869 16.3916 15.7034 16.2751 15.8474 16.2751C15.9914 16.2751 16.1078 16.3916 16.1078 16.5356Z" fill="white"/>
<path id="Vector_86" d="M17.9672 14.9362C17.9672 15.0802 17.8507 15.1967 17.7068 15.1967C17.5628 15.1967 17.4463 15.0802 17.4463 14.9362C17.4463 14.7923 17.5628 14.6758 17.7068 14.6758C17.8507 14.6758 17.9672 14.7923 17.9672 14.9362Z" fill="white"/>
<path id="Vector_87" d="M18.4672 12.8249C18.4672 12.9689 18.3507 13.0854 18.2068 13.0854C18.0628 13.0854 17.9463 12.9689 17.9463 12.8249C17.9463 12.6809 18.0628 12.5645 18.2068 12.5645C18.3507 12.5645 18.4672 12.6809 18.4672 12.8249Z" fill="white"/>
<path id="Vector_88" d="M17.0375 13.7373C17.0375 13.8812 16.921 13.9977 16.7771 13.9977C16.6331 13.9977 16.5166 13.8812 16.5166 13.7373C16.5166 13.5933 16.6331 13.4768 16.7771 13.4768C16.921 13.4768 17.0375 13.5933 17.0375 13.7373Z" fill="white"/>
<path id="Vector_89" d="M15.1772 12.8249C15.1772 12.9689 15.0607 13.0854 14.9167 13.0854C14.7727 13.0854 14.6562 12.9689 14.6562 12.8249C14.6562 12.6809 14.7727 12.5645 14.9167 12.5645C15.0607 12.5645 15.1772 12.6809 15.1772 12.8249Z" fill="white"/>
<path id="Vector_90" d="M15.6082 16.4061L14.8398 15.6378V13.0854H14.9943V15.5736L15.7181 16.2961L15.6082 16.4061Z" fill="white"/>
<path id="Vector_91" d="M15.9243 9.16406H15.7686V10.9546H15.9243V9.16406Z" fill="white"/>
<path id="Vector_92" d="M17.4459 15.5278H16.9629V15.6836H17.4459V15.5278Z" fill="white"/>
<path id="Vector_93" d="M17.2885 12.1548C17.1432 12.1548 17.0254 12.037 17.0254 11.8917C17.0254 11.7465 17.1432 11.6287 17.2885 11.6287C17.4338 11.6287 17.5516 11.7465 17.5516 11.8917C17.5529 12.0357 17.4338 12.1548 17.2885 12.1548ZM17.2885 11.7831C17.2283 11.7831 17.1798 11.8315 17.1798 11.8917C17.1798 11.952 17.2283 12.0004 17.2885 12.0004C17.3487 12.0004 17.3971 11.952 17.3971 11.8917C17.3971 11.8315 17.3487 11.7831 17.2885 11.7831Z" fill="white"/>
<path id="Vector_94" d="M18.2074 12.1548C18.0621 12.1548 17.9443 12.037 17.9443 11.8917C17.9443 11.7465 18.0621 11.6287 18.2074 11.6287C18.3527 11.6287 18.4705 11.7465 18.4705 11.8917C18.4718 12.0357 18.3527 12.1548 18.2074 12.1548ZM18.2074 11.7831C18.1472 11.7831 18.0988 11.8315 18.0988 11.8917C18.0988 11.952 18.1472 12.0004 18.2074 12.0004C18.2676 12.0004 18.3161 11.952 18.3161 11.8917C18.3161 11.8315 18.2676 11.7831 18.2074 11.7831Z" fill="white"/>
<path id="Vector_95" d="M17.9576 11.8132H17.4746V11.969H17.9576V11.8132Z" fill="white"/>
</g>
<g id="Group_12">
<path id="Vector_96" d="M20.2709 15.4193H20.1152V11.918L19.1846 10.9874V0.986328H19.3403V10.9233L20.2709 11.8539V15.4193Z" fill="white"/>
<path id="Vector_97" d="M22.1315 10.9559H21.9758V6.27403L22.9051 5.34342V2.61835L22.0216 1.73355H21.3096V1.5791H22.0857L23.0608 2.55421V5.40755L22.1315 6.33816V10.9559Z" fill="white"/>
<path id="Vector_98" d="M22.0851 16.613H21.123V16.4585H22.0209L22.9044 15.5737V8.16553H23.0602V15.6379L22.0851 16.613Z" fill="white"/>
<path id="Vector_99" d="M22.1309 14.6757H21.9751V13.7779L21.0445 12.8473V9.12744L20.1152 8.19814V5.34348L21.0681 4.39062L21.178 4.50057L20.271 5.40762V8.134L21.2003 9.0633V12.7831L22.1309 13.7137V14.6757Z" fill="white"/>
<path id="Vector_100" d="M20.1928 15.8694C20.0475 15.8694 19.9297 15.7516 19.9297 15.6063C19.9297 15.4611 20.0475 15.3433 20.1928 15.3433C20.3381 15.3433 20.4559 15.4611 20.4559 15.6063C20.4572 15.7503 20.3381 15.8694 20.1928 15.8694ZM20.1928 15.4977C20.1326 15.4977 20.0841 15.5461 20.0841 15.6063C20.0841 15.6666 20.1326 15.715 20.1928 15.715C20.253 15.715 20.3014 15.6666 20.3014 15.6063C20.3014 15.5461 20.253 15.4977 20.1928 15.4977Z" fill="white"/>
<path id="Vector_101" d="M21.1234 15.8694C20.9781 15.8694 20.8604 15.7516 20.8604 15.6063C20.8604 15.4611 20.9781 15.3433 21.1234 15.3433C21.2687 15.3433 21.3865 15.4611 21.3865 15.6063C21.3865 15.7503 21.2687 15.8694 21.1234 15.8694ZM21.1234 15.4977C21.0632 15.4977 21.0148 15.5461 21.0148 15.6063C21.0148 15.6666 21.0632 15.715 21.1234 15.715C21.1836 15.715 21.2321 15.6666 21.2321 15.6063C21.2321 15.5461 21.1823 15.4977 21.1234 15.4977Z" fill="white"/>
<path id="Vector_102" d="M21.1234 14.9388C20.9781 14.9388 20.8604 14.821 20.8604 14.6757C20.8604 14.5304 20.9781 14.4126 21.1234 14.4126C21.2687 14.4126 21.3865 14.5304 21.3865 14.6757C21.3865 14.821 21.2687 14.9388 21.1234 14.9388ZM21.1234 14.567C21.0632 14.567 21.0148 14.6155 21.0148 14.6757C21.0148 14.7359 21.0632 14.7843 21.1234 14.7843C21.1836 14.7843 21.2321 14.7359 21.2321 14.6757C21.2321 14.6155 21.1823 14.567 21.1234 14.567Z" fill="white"/>
<path id="Vector_103" d="M20.1928 11.4048C20.0475 11.4048 19.9297 11.287 19.9297 11.1417C19.9297 10.9965 20.0475 10.8787 20.1928 10.8787C20.3381 10.8787 20.4559 10.9965 20.4559 11.1417C20.4572 11.287 20.3381 11.4048 20.1928 11.4048ZM20.1928 11.0331C20.1326 11.0331 20.0841 11.0815 20.0841 11.1417C20.0841 11.202 20.1326 11.2504 20.1928 11.2504C20.253 11.2504 20.3014 11.202 20.3014 11.1417C20.3014 11.0815 20.253 11.0331 20.1928 11.0331Z" fill="white"/>
<path id="Vector_104" d="M21.1235 16.5356C21.1235 16.6796 21.007 16.7961 20.863 16.7961C20.719 16.7961 20.6025 16.6796 20.6025 16.5356C20.6025 16.3916 20.719 16.2751 20.863 16.2751C21.007 16.2751 21.1235 16.3916 21.1235 16.5356Z" fill="white"/>
<path id="Vector_105" d="M20.4536 16.5356C20.4536 16.6796 20.3371 16.7961 20.1931 16.7961C20.0491 16.7961 19.9326 16.6796 19.9326 16.5356C19.9326 16.3916 20.0491 16.2751 20.1931 16.2751C20.3371 16.2751 20.4536 16.3916 20.4536 16.5356Z" fill="white"/>
<path id="Vector_106" d="M21.3842 13.7373C21.3842 13.8812 21.2677 13.9977 21.1237 13.9977C20.9798 13.9977 20.8633 13.8812 20.8633 13.7373C20.8633 13.5933 20.9798 13.4768 21.1237 13.4768C21.2677 13.4768 21.3842 13.5933 21.3842 13.7373Z" fill="white"/>
<path id="Vector_107" d="M19.5239 12.8249C19.5239 12.9689 19.4074 13.0854 19.2634 13.0854C19.1194 13.0854 19.0029 12.9689 19.0029 12.8249C19.0029 12.6809 19.1194 12.5645 19.2634 12.5645C19.4074 12.5645 19.5239 12.6809 19.5239 12.8249Z" fill="white"/>
<path id="Vector_108" d="M19.9542 16.4061L19.1846 15.6378V13.0854H19.3403V15.5736L20.0641 16.2961L19.9542 16.4061Z" fill="white"/>
<path id="Vector_109" d="M20.271 9.16406H20.1152V10.9546H20.271V9.16406Z" fill="white"/>
<path id="Vector_110" d="M21.7925 15.5278H21.3096V15.6836H21.7925V15.5278Z" fill="white"/>
<path id="Vector_111" d="M21.6352 12.1548C21.4899 12.1548 21.3721 12.037 21.3721 11.8917C21.3721 11.7465 21.4899 11.6287 21.6352 11.6287C21.7804 11.6287 21.8982 11.7465 21.8982 11.8917C21.8982 12.0357 21.7804 12.1548 21.6352 12.1548ZM21.6352 11.7831C21.5749 11.7831 21.5265 11.8315 21.5265 11.8917C21.5265 11.952 21.5749 12.0004 21.6352 12.0004C21.6954 12.0004 21.7438 11.952 21.7438 11.8917C21.7438 11.8315 21.6941 11.7831 21.6352 11.7831Z" fill="white"/>
</g>
</g>
<g id="Group_13">
<g id="Group_14">
<path id="Vector_112" d="M2.88584 31.8049H2.73139V28.3037L1.80078 27.3744V17.3733H1.95654V27.3089L2.88584 28.2396V31.8049Z" fill="white"/>
<path id="Vector_113" d="M4.7458 27.3416H4.59135V22.6598L5.52065 21.7305V19.0041L4.63586 18.1193H3.92383V17.9648H4.69999L5.67641 18.94V21.7946L4.7458 22.7239V27.3416Z" fill="white"/>
<path id="Vector_114" d="M4.69933 32.9986H3.7373V32.8442H4.63519L5.51999 31.9594V24.5525H5.67575V32.0235L4.69933 32.9986Z" fill="white"/>
<path id="Vector_115" d="M4.7458 31.0614H4.59135V30.1635L3.66075 29.2342V25.5144L2.73145 24.5838V21.7304L3.683 20.7776L3.79294 20.8875L2.88589 21.7946V24.5197L3.8165 25.4503V29.1688L4.7458 30.0994V31.0614Z" fill="white"/>
<path id="Vector_116" d="M3.73769 18.3064C3.59241 18.3064 3.47461 18.1886 3.47461 18.0434C3.47461 17.8981 3.59241 17.7803 3.73769 17.7803C3.88298 17.7803 4.00078 17.8981 4.00078 18.0434C4.00078 18.1886 3.88298 18.3064 3.73769 18.3064ZM3.73769 17.9334C3.67748 17.9334 3.62906 17.9818 3.62906 18.042C3.62906 18.1023 3.67748 18.1507 3.73769 18.1507C3.7979 18.1507 3.84633 18.1023 3.84633 18.042C3.84633 17.9818 3.7979 17.9334 3.73769 17.9334Z" fill="white"/>
<path id="Vector_117" d="M3.73769 24.0237C3.59241 24.0237 3.47461 23.9059 3.47461 23.7606C3.47461 23.6154 3.59241 23.4976 3.73769 23.4976C3.88298 23.4976 4.00078 23.6154 4.00078 23.7606C4.00209 23.9046 3.88298 24.0237 3.73769 24.0237ZM3.73769 23.652C3.67748 23.652 3.62906 23.7004 3.62906 23.7606C3.62906 23.8208 3.67748 23.8693 3.73769 23.8693C3.7979 23.8693 3.84633 23.8208 3.84633 23.7606C3.84633 23.7004 3.7979 23.652 3.73769 23.652Z" fill="white"/>
<path id="Vector_118" d="M5.59707 18.3064C5.45178 18.3064 5.33398 18.1886 5.33398 18.0434C5.33398 17.8981 5.45178 17.7803 5.59707 17.7803C5.74235 17.7803 5.86015 17.8981 5.86015 18.0434C5.86015 18.1886 5.74235 18.3064 5.59707 18.3064ZM5.59707 17.9334C5.53686 17.9334 5.48843 17.9818 5.48843 18.042C5.48843 18.1023 5.53686 18.1507 5.59707 18.1507C5.65728 18.1507 5.7057 18.1023 5.7057 18.042C5.7057 17.9818 5.65728 17.9334 5.59707 17.9334Z" fill="white"/>
<path id="Vector_119" d="M5.59707 24.6297C5.45178 24.6297 5.33398 24.5119 5.33398 24.3666C5.33398 24.2213 5.45178 24.1035 5.59707 24.1035C5.74235 24.1035 5.86015 24.2213 5.86015 24.3666C5.86146 24.5119 5.74235 24.6297 5.59707 24.6297ZM5.59707 24.258C5.53686 24.258 5.48843 24.3064 5.48843 24.3666C5.48843 24.4268 5.53686 24.4752 5.59707 24.4752C5.65728 24.4752 5.7057 24.4268 5.7057 24.3666C5.7057 24.3064 5.65728 24.258 5.59707 24.258Z" fill="white"/>
<path id="Vector_120" d="M4.66836 27.7918C4.52307 27.7918 4.40527 27.674 4.40527 27.5287C4.40527 27.3834 4.52307 27.2656 4.66836 27.2656C4.81364 27.2656 4.93144 27.3834 4.93144 27.5287C4.93144 27.6727 4.81364 27.7918 4.66836 27.7918ZM4.66836 27.4188C4.60815 27.4188 4.55972 27.4672 4.55972 27.5274C4.55972 27.5876 4.60815 27.636 4.66836 27.636C4.72857 27.636 4.77699 27.5876 4.77699 27.5274C4.77699 27.4672 4.72857 27.4188 4.66836 27.4188Z" fill="white"/>
<path id="Vector_121" d="M2.80801 27.7918C2.66272 27.7918 2.54492 27.674 2.54492 27.5287C2.54492 27.3834 2.66272 27.2656 2.80801 27.2656C2.95329 27.2656 3.07109 27.3834 3.07109 27.5287C3.07109 27.6727 2.95329 27.7918 2.80801 27.7918ZM2.80801 27.4188C2.7478 27.4188 2.69937 27.4672 2.69937 27.5274C2.69937 27.5876 2.7478 27.636 2.80801 27.636C2.86821 27.636 2.91664 27.5876 2.91664 27.5274C2.91664 27.4672 2.86821 27.4188 2.80801 27.4188Z" fill="white"/>
<path id="Vector_122" d="M2.80801 25.6282C2.66272 25.6282 2.54492 25.5104 2.54492 25.3651C2.54492 25.2198 2.66272 25.1021 2.80801 25.1021C2.95329 25.1021 3.07109 25.2198 3.07109 25.3651C3.07109 25.5104 2.95329 25.6282 2.80801 25.6282ZM2.80801 25.2565C2.7478 25.2565 2.69937 25.3049 2.69937 25.3651C2.69937 25.4253 2.7478 25.4738 2.80801 25.4738C2.86821 25.4738 2.91664 25.4253 2.91664 25.3651C2.91664 25.3049 2.86821 25.2565 2.80801 25.2565Z" fill="white"/>
<path id="Vector_123" d="M2.80801 20.1873C2.66272 20.1873 2.54492 20.0695 2.54492 19.9242C2.54492 19.7789 2.66272 19.6611 2.80801 19.6611C2.95329 19.6611 3.07109 19.7789 3.07109 19.9242C3.07109 20.0682 2.95329 20.1873 2.80801 20.1873ZM2.80801 19.8143C2.7478 19.8143 2.69937 19.8627 2.69937 19.9229C2.69937 19.9831 2.7478 20.0315 2.80801 20.0315C2.86821 20.0315 2.91664 19.9831 2.91664 19.9229C2.91664 19.8627 2.86821 19.8143 2.80801 19.8143Z" fill="white"/>
<path id="Vector_124" d="M3.99847 20.8325C3.99847 20.9765 3.88198 21.093 3.738 21.093C3.59403 21.093 3.47754 20.9765 3.47754 20.8325C3.47754 20.6885 3.59403 20.572 3.738 20.572C3.88198 20.572 3.99847 20.6885 3.99847 20.8325Z" fill="white"/>
<path id="Vector_125" d="M3.738 19.2592C3.88186 19.2592 3.99847 19.1426 3.99847 18.9987C3.99847 18.8549 3.88186 18.7383 3.738 18.7383C3.59415 18.7383 3.47754 18.8549 3.47754 18.9987C3.47754 19.1426 3.59415 19.2592 3.738 19.2592Z" fill="white"/>
<path id="Vector_126" d="M2.88589 19.737H2.73145V18.0106L3.70656 17.0342H4.69999L5.46699 17.8012L5.35704 17.9111L4.63586 17.1899H3.77069L2.88589 18.0747V19.737Z" fill="white"/>
<path id="Vector_127" d="M2.8872 25.551H2.73145V27.3416H2.8872V25.551Z" fill="white"/>
<path id="Vector_128" d="M3.81591 23.5734H3.66016V22.6598L4.57898 21.741V19.9557L3.81329 19.19L3.92324 19.0801L4.73474 19.8916V21.8052L3.81591 22.724V23.5734Z" fill="white"/>
</g>
<g id="Group_15">
<path id="Vector_129" d="M7.23252 31.8049H7.07676V28.3037L6.14746 27.3744V17.3733H6.30191V27.3089L7.23252 28.2396V31.8049Z" fill="white"/>
<path id="Vector_130" d="M9.09248 27.3416H8.93672V22.6598L9.86733 21.7305V19.0041L8.98253 18.1193H8.27051V17.9648H9.04667L10.0218 18.94V21.7946L9.09248 22.7239V27.3416Z" fill="white"/>
<path id="Vector_131" d="M9.04601 32.9986H8.08398V32.8442H8.98187L9.86667 31.9594V24.5525H10.0211V32.0235L9.04601 32.9986Z" fill="white"/>
<path id="Vector_132" d="M9.09184 31.0614H8.93608V30.1635L8.00678 29.2342V25.5144L7.07617 24.5838V21.7304L8.02903 20.7776L8.13898 20.8875L7.23193 21.7946V24.5197L8.16123 25.4503V29.1688L9.09184 30.0994V31.0614Z" fill="white"/>
<path id="Vector_133" d="M8.08437 18.3064C7.93909 18.3064 7.82129 18.1886 7.82129 18.0434C7.82129 17.8981 7.93909 17.7803 8.08437 17.7803C8.22966 17.7803 8.34746 17.8981 8.34746 18.0434C8.34746 18.1886 8.22966 18.3064 8.08437 18.3064ZM8.08437 17.9334C8.02416 17.9334 7.97574 17.9818 7.97574 18.042C7.97574 18.1023 8.02416 18.1507 8.08437 18.1507C8.14458 18.1507 8.19301 18.1023 8.19301 18.042C8.19301 17.9818 8.14458 17.9334 8.08437 17.9334Z" fill="white"/>
<path id="Vector_134" d="M8.08437 24.0237C7.93909 24.0237 7.82129 23.9059 7.82129 23.7606C7.82129 23.6154 7.93909 23.4976 8.08437 23.4976C8.22966 23.4976 8.34746 23.6154 8.34746 23.7606C8.34746 23.9046 8.22966 24.0237 8.08437 24.0237ZM8.08437 23.652C8.02416 23.652 7.97574 23.7004 7.97574 23.7606C7.97574 23.8208 8.02416 23.8693 8.08437 23.8693C8.14458 23.8693 8.19301 23.8208 8.19301 23.7606C8.19301 23.7004 8.14458 23.652 8.08437 23.652Z" fill="white"/>
<path id="Vector_135" d="M9.94375 18.3064C9.79846 18.3064 9.68066 18.1886 9.68066 18.0434C9.68066 17.8981 9.79846 17.7803 9.94375 17.7803C10.089 17.7803 10.2068 17.8981 10.2068 18.0434C10.2068 18.1886 10.089 18.3064 9.94375 18.3064ZM9.94375 17.9334C9.88354 17.9334 9.83511 17.9818 9.83511 18.042C9.83511 18.1023 9.88354 18.1507 9.94375 18.1507C10.004 18.1507 10.0524 18.1023 10.0524 18.042C10.0524 17.9818 10.004 17.9334 9.94375 17.9334Z" fill="white"/>
<path id="Vector_136" d="M9.94375 24.6297C9.79846 24.6297 9.68066 24.5119 9.68066 24.3666C9.68066 24.2213 9.79846 24.1035 9.94375 24.1035C10.089 24.1035 10.2068 24.2213 10.2068 24.3666C10.2068 24.5119 10.089 24.6297 9.94375 24.6297ZM9.94375 24.258C9.88354 24.258 9.83511 24.3064 9.83511 24.3666C9.83511 24.4268 9.88354 24.4752 9.94375 24.4752C10.004 24.4752 10.0524 24.4268 10.0524 24.3666C10.0524 24.3064 10.004 24.258 9.94375 24.258Z" fill="white"/>
<path id="Vector_137" d="M9.01308 27.7918C8.8678 27.7918 8.75 27.674 8.75 27.5287C8.75 27.3834 8.8678 27.2656 9.01308 27.2656C9.15837 27.2656 9.27617 27.3834 9.27617 27.5287C9.27748 27.6727 9.15968 27.7918 9.01308 27.7918ZM9.01308 27.4188C8.95287 27.4188 8.90445 27.4672 8.90445 27.5274C8.90445 27.5876 8.95287 27.636 9.01308 27.636C9.07329 27.636 9.12172 27.5876 9.12172 27.5274C9.12172 27.4672 9.07329 27.4188 9.01308 27.4188Z" fill="white"/>
<path id="Vector_138" d="M7.15371 27.7918C7.00842 27.7918 6.89062 27.674 6.89062 27.5287C6.89062 27.3834 7.00842 27.2656 7.15371 27.2656C7.29899 27.2656 7.41679 27.3834 7.41679 27.5287C7.4181 27.6727 7.3003 27.7918 7.15371 27.7918ZM7.15371 27.4188C7.0935 27.4188 7.04507 27.4672 7.04507 27.5274C7.04507 27.5876 7.0935 27.636 7.15371 27.636C7.21392 27.636 7.26234 27.5876 7.26234 27.5274C7.26234 27.4672 7.21392 27.4188 7.15371 27.4188Z" fill="white"/>
<path id="Vector_139" d="M7.15371 25.6282C7.00842 25.6282 6.89062 25.5104 6.89062 25.3651C6.89062 25.2198 7.00842 25.1021 7.15371 25.1021C7.29899 25.1021 7.41679 25.2198 7.41679 25.3651C7.4181 25.5104 7.3003 25.6282 7.15371 25.6282ZM7.15371 25.2565C7.0935 25.2565 7.04507 25.3049 7.04507 25.3651C7.04507 25.4253 7.0935 25.4738 7.15371 25.4738C7.21392 25.4738 7.26234 25.4253 7.26234 25.3651C7.26234 25.3049 7.21392 25.2565 7.15371 25.2565Z" fill="white"/>
<path id="Vector_140" d="M7.15371 20.1873C7.00842 20.1873 6.89062 20.0695 6.89062 19.9242C6.89062 19.7789 7.00842 19.6611 7.15371 19.6611C7.29899 19.6611 7.41679 19.7789 7.41679 19.9242C7.4181 20.0682 7.3003 20.1873 7.15371 20.1873ZM7.15371 19.8143C7.0935 19.8143 7.04507 19.8627 7.04507 19.9229C7.04507 19.9831 7.0935 20.0315 7.15371 20.0315C7.21392 20.0315 7.26234 19.9831 7.26234 19.9229C7.26234 19.8627 7.21392 19.8143 7.15371 19.8143Z" fill="white"/>
<path id="Vector_141" d="M6.4848 17.1128C6.4848 17.2567 6.36831 17.3732 6.22433 17.3732C6.08036 17.3732 5.96387 17.2567 5.96387 17.1128C5.96387 16.9688 6.08036 16.8523 6.22433 16.8523C6.36831 16.8523 6.4848 16.9688 6.4848 17.1128Z" fill="white"/>
<path id="Vector_142" d="M8.34515 20.8325C8.34515 20.9765 8.22866 21.093 8.08468 21.093C7.94071 21.093 7.82422 20.9765 7.82422 20.8325C7.82422 20.6885 7.94071 20.572 8.08468 20.572C8.22866 20.572 8.34515 20.6885 8.34515 20.8325Z" fill="white"/>
<path id="Vector_143" d="M8.08468 19.2592C8.22854 19.2592 8.34515 19.1426 8.34515 18.9987C8.34515 18.8549 8.22854 18.7383 8.08468 18.7383C7.94083 18.7383 7.82422 18.8549 7.82422 18.9987C7.82422 19.1426 7.94083 19.2592 8.08468 19.2592Z" fill="white"/>
<path id="Vector_144" d="M7.23193 19.737H7.07617V18.0106L8.05128 17.0342H9.04602L9.81302 17.8012L9.70308 17.9111L8.98189 17.1899H8.11673L7.23193 18.0747V19.737Z" fill="white"/>
<path id="Vector_145" d="M7.23193 25.551H7.07617V27.3416H7.23193V25.551Z" fill="white"/>
<path id="Vector_146" d="M8.16128 23.5734H8.00684V22.6598L8.92566 21.741V19.9557L8.15997 19.19L8.26992 19.0801L9.08011 19.8916V21.8052L8.16128 22.724V23.5734Z" fill="white"/>
</g>
<g id="Group_16">
<path id="Vector_147" d="M11.5772 31.8049H11.4228V28.3037L10.4922 27.3744V17.3733H10.6479V27.3089L11.5772 28.2396V31.8049Z" fill="white"/>
<path id="Vector_148" d="M13.4379 27.3416H13.2834V22.6598L14.2127 21.7305V19.0041L13.3279 18.1193H12.6172V17.9648H13.3934L14.3685 18.94V21.7946L13.4379 22.7239V27.3416Z" fill="white"/>
<path id="Vector_149" d="M13.3927 32.9986H12.4307V32.8442H13.3272L14.212 31.9594V24.5525H14.3678V32.0235L13.3927 32.9986Z" fill="white"/>
<path id="Vector_150" d="M13.4372 31.0614H13.2828V30.1635L12.3522 29.2342V25.5144L11.4229 24.5838V21.7304L12.3757 20.7776L12.4857 20.8875L11.5773 21.7946V24.5197L12.5079 25.4503V29.1688L13.4372 30.0994V31.0614Z" fill="white"/>
<path id="Vector_151" d="M12.4311 18.3064C12.2858 18.3064 12.168 18.1886 12.168 18.0434C12.168 17.8981 12.2858 17.7803 12.4311 17.7803C12.5763 17.7803 12.6941 17.8981 12.6941 18.0434C12.6941 18.1886 12.5763 18.3064 12.4311 18.3064ZM12.4311 17.9334C12.3708 17.9334 12.3224 17.9818 12.3224 18.042C12.3224 18.1023 12.3708 18.1507 12.4311 18.1507C12.4913 18.1507 12.5397 18.1023 12.5397 18.042C12.5397 17.9818 12.49 17.9334 12.4311 17.9334Z" fill="white"/>
<path id="Vector_152" d="M12.4311 24.0237C12.2858 24.0237 12.168 23.9059 12.168 23.7606C12.168 23.6154 12.2858 23.4976 12.4311 23.4976C12.5763 23.4976 12.6941 23.6154 12.6941 23.7606C12.6941 23.9046 12.5763 24.0237 12.4311 24.0237ZM12.4311 23.652C12.3708 23.652 12.3224 23.7004 12.3224 23.7606C12.3224 23.8208 12.3708 23.8693 12.4311 23.8693C12.4913 23.8693 12.5397 23.8208 12.5397 23.7606C12.5384 23.7004 12.49 23.652 12.4311 23.652Z" fill="white"/>
<path id="Vector_153" d="M14.2904 18.3064C14.1451 18.3064 14.0273 18.1886 14.0273 18.0434C14.0273 17.8981 14.1451 17.7803 14.2904 17.7803C14.4357 17.7803 14.5535 17.8981 14.5535 18.0434C14.5535 18.1886 14.4357 18.3064 14.2904 18.3064ZM14.2904 17.9334C14.2302 17.9334 14.1818 17.9818 14.1818 18.042C14.1818 18.1023 14.2302 18.1507 14.2904 18.1507C14.3506 18.1507 14.3991 18.1023 14.3991 18.042C14.3991 17.9818 14.3493 17.9334 14.2904 17.9334Z" fill="white"/>
<path id="Vector_154" d="M14.2904 24.6297C14.1451 24.6297 14.0273 24.5119 14.0273 24.3666C14.0273 24.2213 14.1451 24.1035 14.2904 24.1035C14.4357 24.1035 14.5535 24.2213 14.5535 24.3666C14.5535 24.5119 14.4357 24.6297 14.2904 24.6297ZM14.2904 24.258C14.2302 24.258 14.1818 24.3064 14.1818 24.3666C14.1818 24.4268 14.2302 24.4752 14.2904 24.4752C14.3506 24.4752 14.3991 24.4268 14.3991 24.3666C14.3991 24.3064 14.3493 24.258 14.2904 24.258Z" fill="white"/>
<path id="Vector_155" d="M13.3598 27.7918C13.2145 27.7918 13.0967 27.674 13.0967 27.5287C13.0967 27.3834 13.2145 27.2656 13.3598 27.2656C13.505 27.2656 13.6228 27.3834 13.6228 27.5287C13.6228 27.6727 13.505 27.7918 13.3598 27.7918ZM13.3598 27.4188C13.2996 27.4188 13.2511 27.4672 13.2511 27.5274C13.2511 27.5876 13.2996 27.636 13.3598 27.636C13.42 27.636 13.4684 27.5876 13.4684 27.5274C13.4684 27.4672 13.42 27.4188 13.3598 27.4188Z" fill="white"/>
<path id="Vector_156" d="M11.5004 27.7918C11.3551 27.7918 11.2373 27.674 11.2373 27.5287C11.2373 27.3834 11.3551 27.2656 11.5004 27.2656C11.6457 27.2656 11.7635 27.3834 11.7635 27.5287C11.7635 27.6727 11.6457 27.7918 11.5004 27.7918ZM11.5004 27.4188C11.4402 27.4188 11.3918 27.4672 11.3918 27.5274C11.3918 27.5876 11.4402 27.636 11.5004 27.636C11.5606 27.636 11.609 27.5876 11.609 27.5274C11.609 27.4672 11.5606 27.4188 11.5004 27.4188Z" fill="white"/>
<path id="Vector_157" d="M11.5004 25.6282C11.3551 25.6282 11.2373 25.5104 11.2373 25.3651C11.2373 25.2198 11.3551 25.1021 11.5004 25.1021C11.6457 25.1021 11.7635 25.2198 11.7635 25.3651C11.7635 25.5104 11.6457 25.6282 11.5004 25.6282ZM11.5004 25.2565C11.4402 25.2565 11.3918 25.3049 11.3918 25.3651C11.3918 25.4253 11.4402 25.4738 11.5004 25.4738C11.5606 25.4738 11.609 25.4253 11.609 25.3651C11.609 25.3049 11.5606 25.2565 11.5004 25.2565Z" fill="white"/>
<path id="Vector_158" d="M11.5004 20.1873C11.3551 20.1873 11.2373 20.0695 11.2373 19.9242C11.2373 19.7789 11.3551 19.6611 11.5004 19.6611C11.6457 19.6611 11.7635 19.7789 11.7635 19.9242C11.7635 20.0682 11.6457 20.1873 11.5004 20.1873ZM11.5004 19.8143C11.4402 19.8143 11.3918 19.8627 11.3918 19.9229C11.3918 19.9831 11.4402 20.0315 11.5004 20.0315C11.5606 20.0315 11.609 19.9831 11.609 19.9229C11.609 19.8627 11.5606 19.8143 11.5004 19.8143Z" fill="white"/>
<path id="Vector_159" d="M10.8315 17.1128C10.8315 17.2567 10.715 17.3732 10.571 17.3732C10.427 17.3732 10.3105 17.2567 10.3105 17.1128C10.3105 16.9688 10.427 16.8523 10.571 16.8523C10.715 16.8523 10.8315 16.9688 10.8315 17.1128Z" fill="white"/>
<path id="Vector_160" d="M12.6918 20.8325C12.6918 20.9765 12.5753 21.093 12.4314 21.093C12.2874 21.093 12.1709 20.9765 12.1709 20.8325C12.1709 20.6885 12.2874 20.572 12.4314 20.572C12.574 20.572 12.6918 20.6885 12.6918 20.8325Z" fill="white"/>
<path id="Vector_161" d="M12.4314 19.2592C12.5752 19.2592 12.6918 19.1426 12.6918 18.9987C12.6918 18.8549 12.5752 18.7383 12.4314 18.7383C12.2875 18.7383 12.1709 18.8549 12.1709 18.9987C12.1709 19.1426 12.2875 19.2592 12.4314 19.2592Z" fill="white"/>
<path id="Vector_162" d="M11.5773 19.737H11.4229V18.0106L12.398 17.0342H13.3927L14.1584 17.8012L14.0498 17.9111L13.3273 17.1899H12.4621L11.5773 18.0747V19.737Z" fill="white"/>
<path id="Vector_163" d="M11.5786 25.551H11.4229V27.3416H11.5786V25.551Z" fill="white"/>
<path id="Vector_164" d="M12.5083 23.5734H12.3525V22.6598L13.2714 21.741V19.9557L12.507 19.19L12.6156 19.0801L13.4271 19.8916V21.8052L12.5083 22.724V23.5734Z" fill="white"/>
</g>
<g id="Group_17">
<path id="Vector_165" d="M15.9249 31.8049H15.7691V28.3037L14.8398 27.3744V17.3733H14.9943V27.3089L15.9249 28.2396V31.8049Z" fill="white"/>
<path id="Vector_166" d="M17.7849 27.3416H17.6291V22.6598L18.5597 21.7305V19.0041L17.6749 18.1193H16.9629V17.9648H17.7391L18.7142 18.94V21.7946L17.7849 22.7239V27.3416Z" fill="white"/>
<path id="Vector_167" d="M17.7384 32.9986H16.7764V32.8442H17.6743L18.5591 31.9594V24.5525H18.7135V32.0235L17.7384 32.9986Z" fill="white"/>
<path id="Vector_168" d="M17.7842 31.0614H17.6285V30.1635L16.6992 29.2342V25.5144L15.7686 24.5838V21.7304L16.7214 20.7776L16.8314 20.8875L15.9243 21.7946V24.5197L16.8536 25.4503V29.1688L17.7842 30.0994V31.0614Z" fill="white"/>
<path id="Vector_169" d="M16.7768 18.3064C16.6315 18.3064 16.5137 18.1886 16.5137 18.0434C16.5137 17.8981 16.6315 17.7803 16.7768 17.7803C16.922 17.7803 17.0398 17.8981 17.0398 18.0434C17.0398 18.1886 16.922 18.3064 16.7768 18.3064ZM16.7768 17.9334C16.7165 17.9334 16.6681 17.9818 16.6681 18.042C16.6681 18.1023 16.7165 18.1507 16.7768 18.1507C16.837 18.1507 16.8854 18.1023 16.8854 18.042C16.8854 17.9818 16.837 17.9334 16.7768 17.9334Z" fill="white"/>
<path id="Vector_170" d="M16.7768 24.0237C16.6315 24.0237 16.5137 23.9059 16.5137 23.7606C16.5137 23.6154 16.6315 23.4976 16.7768 23.4976C16.922 23.4976 17.0398 23.6154 17.0398 23.7606C17.0411 23.9046 16.922 24.0237 16.7768 24.0237ZM16.7768 23.652C16.7165 23.652 16.6681 23.7004 16.6681 23.7606C16.6681 23.8208 16.7165 23.8693 16.7768 23.8693C16.837 23.8693 16.8854 23.8208 16.8854 23.7606C16.8854 23.7004 16.837 23.652 16.7768 23.652Z" fill="white"/>
<path id="Vector_171" d="M18.6361 18.3064C18.4908 18.3064 18.373 18.1886 18.373 18.0434C18.373 17.8981 18.4908 17.7803 18.6361 17.7803C18.7814 17.7803 18.8992 17.8981 18.8992 18.0434C18.8992 18.1886 18.7814 18.3064 18.6361 18.3064ZM18.6361 17.9334C18.5759 17.9334 18.5275 17.9818 18.5275 18.042C18.5275 18.1023 18.5759 18.1507 18.6361 18.1507C18.6963 18.1507 18.7448 18.1023 18.7448 18.042C18.7448 17.9818 18.6963 17.9334 18.6361 17.9334Z" fill="white"/>
<path id="Vector_172" d="M18.6361 24.6297C18.4908 24.6297 18.373 24.5119 18.373 24.3666C18.373 24.2213 18.4908 24.1035 18.6361 24.1035C18.7814 24.1035 18.8992 24.2213 18.8992 24.3666C18.9005 24.5119 18.7814 24.6297 18.6361 24.6297ZM18.6361 24.258C18.5759 24.258 18.5275 24.3064 18.5275 24.3666C18.5275 24.4268 18.5759 24.4752 18.6361 24.4752C18.6963 24.4752 18.7448 24.4268 18.7448 24.3666C18.7448 24.3064 18.6963 24.258 18.6361 24.258Z" fill="white"/>
<path id="Vector_173" d="M17.7074 27.7918C17.5621 27.7918 17.4443 27.674 17.4443 27.5287C17.4443 27.3834 17.5621 27.2656 17.7074 27.2656C17.8527 27.2656 17.9705 27.3834 17.9705 27.5287C17.9705 27.6727 17.8527 27.7918 17.7074 27.7918ZM17.7074 27.4188C17.6472 27.4188 17.5988 27.4672 17.5988 27.5274C17.5988 27.5876 17.6472 27.636 17.7074 27.636C17.7676 27.636 17.8161 27.5876 17.8161 27.5274C17.8161 27.4672 17.7663 27.4188 17.7074 27.4188Z" fill="white"/>
<path id="Vector_174" d="M15.8471 27.7918C15.7018 27.7918 15.584 27.674 15.584 27.5287C15.584 27.3834 15.7018 27.2656 15.8471 27.2656C15.9924 27.2656 16.1102 27.3834 16.1102 27.5287C16.1102 27.6727 15.9924 27.7918 15.8471 27.7918ZM15.8471 27.4188C15.7869 27.4188 15.7384 27.4672 15.7384 27.5274C15.7384 27.5876 15.7869 27.636 15.8471 27.636C15.9073 27.636 15.9557 27.5876 15.9557 27.5274C15.9557 27.4672 15.906 27.4188 15.8471 27.4188Z" fill="white"/>
<path id="Vector_175" d="M15.8471 25.6282C15.7018 25.6282 15.584 25.5104 15.584 25.3651C15.584 25.2198 15.7018 25.1021 15.8471 25.1021C15.9924 25.1021 16.1102 25.2198 16.1102 25.3651C16.1102 25.5104 15.9924 25.6282 15.8471 25.6282ZM15.8471 25.2565C15.7869 25.2565 15.7384 25.3049 15.7384 25.3651C15.7384 25.4253 15.7869 25.4738 15.8471 25.4738C15.9073 25.4738 15.9557 25.4253 15.9557 25.3651C15.9544 25.3049 15.906 25.2565 15.8471 25.2565Z" fill="white"/>
<path id="Vector_176" d="M15.8471 20.1873C15.7018 20.1873 15.584 20.0695 15.584 19.9242C15.584 19.7789 15.7018 19.6611 15.8471 19.6611C15.9924 19.6611 16.1102 19.7789 16.1102 19.9242C16.1102 20.0682 15.9924 20.1873 15.8471 20.1873ZM15.8471 19.8143C15.7869 19.8143 15.7384 19.8627 15.7384 19.9229C15.7384 19.9831 15.7869 20.0315 15.8471 20.0315C15.9073 20.0315 15.9557 19.9831 15.9557 19.9229C15.9557 19.8627 15.906 19.8143 15.8471 19.8143Z" fill="white"/>
<path id="Vector_177" d="M15.1772 17.1128C15.1772 17.2567 15.0607 17.3732 14.9167 17.3732C14.7727 17.3732 14.6562 17.2567 14.6562 17.1128C14.6562 16.9688 14.7727 16.8523 14.9167 16.8523C15.0607 16.8523 15.1772 16.9688 15.1772 17.1128Z" fill="white"/>
<path id="Vector_178" d="M17.0375 20.8325C17.0375 20.9765 16.921 21.093 16.7771 21.093C16.6331 21.093 16.5166 20.9765 16.5166 20.8325C16.5166 20.6885 16.6331 20.572 16.7771 20.572C16.921 20.572 17.0375 20.6885 17.0375 20.8325Z" fill="white"/>
<path id="Vector_179" d="M16.7771 19.2592C16.9209 19.2592 17.0375 19.1426 17.0375 18.9987C17.0375 18.8549 16.9209 18.7383 16.7771 18.7383C16.6332 18.7383 16.5166 18.8549 16.5166 18.9987C16.5166 19.1426 16.6332 19.2592 16.7771 19.2592Z" fill="white"/>
<path id="Vector_180" d="M15.9243 19.737H15.7686V18.0106L16.745 17.0342H17.7384L18.5054 17.8012L18.3955 17.9111L17.6743 17.1899H16.8091L15.9243 18.0747V19.737Z" fill="white"/>
<path id="Vector_181" d="M15.9243 25.551H15.7686V27.3416H15.9243V25.551Z" fill="white"/>
<path id="Vector_182" d="M16.8537 23.5734H16.6992V22.6598L17.618 21.741V19.9557L16.8524 19.19L16.9623 19.0801L17.7738 19.8916V21.8052L16.8537 22.724V23.5734Z" fill="white"/>
</g>
<g id="Group_18">
<path id="Vector_183" d="M20.2709 31.8049H20.1152V28.3037L19.1846 27.3744V17.3733H19.3403V27.3089L20.2709 28.2396V31.8049Z" fill="white"/>
<path id="Vector_184" d="M22.1315 27.3416H21.9758V22.6598L22.9051 21.7305V19.0041L22.0216 18.1193H21.3096V17.9648H22.0857L23.0608 18.94V21.7946L22.1315 22.7239V27.3416Z" fill="white"/>
<path id="Vector_185" d="M22.0851 32.9986H21.123V32.8442H22.0209L22.9044 31.9594V24.5525H23.0602V32.0235L22.0851 32.9986Z" fill="white"/>
<path id="Vector_186" d="M22.1309 31.0614H21.9751V30.1635L21.0445 29.2342V25.5144L20.1152 24.5838V21.7304L21.0681 20.7776L21.178 20.8875L20.271 21.7946V24.5197L21.2003 25.4503V29.1688L22.1309 30.0994V31.0614Z" fill="white"/>
<path id="Vector_187" d="M21.1234 18.3064C20.9781 18.3064 20.8604 18.1886 20.8604 18.0434C20.8604 17.8981 20.9781 17.7803 21.1234 17.7803C21.2687 17.7803 21.3865 17.8981 21.3865 18.0434C21.3865 18.1886 21.2687 18.3064 21.1234 18.3064ZM21.1234 17.9334C21.0632 17.9334 21.0148 17.9818 21.0148 18.042C21.0148 18.1023 21.0632 18.1507 21.1234 18.1507C21.1836 18.1507 21.2321 18.1023 21.2321 18.042C21.2321 17.9818 21.1823 17.9334 21.1234 17.9334Z" fill="white"/>
<path id="Vector_188" d="M21.1234 24.0237C20.9781 24.0237 20.8604 23.9059 20.8604 23.7606C20.8604 23.6154 20.9781 23.4976 21.1234 23.4976C21.2687 23.4976 21.3865 23.6154 21.3865 23.7606C21.3865 23.9046 21.2687 24.0237 21.1234 24.0237ZM21.1234 23.652C21.0632 23.652 21.0148 23.7004 21.0148 23.7606C21.0148 23.8208 21.0632 23.8693 21.1234 23.8693C21.1836 23.8693 21.2321 23.8208 21.2321 23.7606C21.2321 23.7004 21.1823 23.652 21.1234 23.652Z" fill="white"/>
<path id="Vector_189" d="M20.1928 27.7918C20.0475 27.7918 19.9297 27.674 19.9297 27.5287C19.9297 27.3834 20.0475 27.2656 20.1928 27.2656C20.3381 27.2656 20.4559 27.3834 20.4559 27.5287C20.4572 27.6727 20.3381 27.7918 20.1928 27.7918ZM20.1928 27.4188C20.1326 27.4188 20.0841 27.4672 20.0841 27.5274C20.0841 27.5876 20.1326 27.636 20.1928 27.636C20.253 27.636 20.3014 27.5876 20.3014 27.5274C20.3014 27.4672 20.253 27.4188 20.1928 27.4188Z" fill="white"/>
<path id="Vector_190" d="M20.1928 25.6282C20.0475 25.6282 19.9297 25.5104 19.9297 25.3651C19.9297 25.2198 20.0475 25.1021 20.1928 25.1021C20.3381 25.1021 20.4559 25.2198 20.4559 25.3651C20.4572 25.5104 20.3381 25.6282 20.1928 25.6282ZM20.1928 25.2565C20.1326 25.2565 20.0841 25.3049 20.0841 25.3651C20.0841 25.4253 20.1326 25.4738 20.1928 25.4738C20.253 25.4738 20.3014 25.4253 20.3014 25.3651C20.3014 25.3049 20.253 25.2565 20.1928 25.2565Z" fill="white"/>
<path id="Vector_191" d="M20.1928 20.1873C20.0475 20.1873 19.9297 20.0695 19.9297 19.9242C19.9297 19.7789 20.0475 19.6611 20.1928 19.6611C20.3381 19.6611 20.4559 19.7789 20.4559 19.9242C20.4572 20.0682 20.3381 20.1873 20.1928 20.1873ZM20.1928 19.8143C20.1326 19.8143 20.0841 19.8627 20.0841 19.9229C20.0841 19.9831 20.1326 20.0315 20.1928 20.0315C20.253 20.0315 20.3014 19.9831 20.3014 19.9229C20.3014 19.8627 20.253 19.8143 20.1928 19.8143Z" fill="white"/>
<path id="Vector_192" d="M19.5239 17.1128C19.5239 17.2567 19.4074 17.3732 19.2634 17.3732C19.1194 17.3732 19.0029 17.2567 19.0029 17.1128C19.0029 16.9688 19.1194 16.8523 19.2634 16.8523C19.4074 16.8523 19.5239 16.9688 19.5239 17.1128Z" fill="white"/>
<path id="Vector_193" d="M21.3842 20.8325C21.3842 20.9765 21.2677 21.093 21.1237 21.093C20.9798 21.093 20.8633 20.9765 20.8633 20.8325C20.8633 20.6885 20.9798 20.572 21.1237 20.572C21.2677 20.572 21.3842 20.6885 21.3842 20.8325Z" fill="white"/>
<path id="Vector_194" d="M21.1237 19.2592C21.2676 19.2592 21.3842 19.1426 21.3842 18.9987C21.3842 18.8549 21.2676 18.7383 21.1237 18.7383C20.9799 18.7383 20.8633 18.8549 20.8633 18.9987C20.8633 19.1426 20.9799 19.2592 21.1237 19.2592Z" fill="white"/>
<path id="Vector_195" d="M20.271 19.737H20.1152V18.0106L21.0903 17.0342H22.0851L22.8521 17.8012L22.7421 17.9111L22.021 17.1899H21.1545L20.271 18.0747V19.737Z" fill="white"/>
<path id="Vector_196" d="M20.271 25.551H20.1152V27.3416H20.271V25.551Z" fill="white"/>
<path id="Vector_197" d="M21.2007 23.5734H21.0449V22.6598L21.9651 21.741V19.9557L21.1994 19.19L21.3093 19.0801L22.1195 19.8916V21.8052L21.2007 22.724V23.5734Z" fill="white"/>
</g>
</g>
</g>
</g>
</g>
</g>
</g>
<g id="Group_19">
<path id="Vector_198" d="M22.1748 10.3591H26.943V27.563H22.1748V10.3591Z" fill="#1A2A55"/>
<g id="Group_20">
<g id="Clip path group_2">
<mask id="mask1_329_57135" style="mask-type:luminance" maskUnits="userSpaceOnUse" x="22" y="10" width="5" height="18">
<g id="SVGID_00000017512185496920583600000011568307836964899971_">
<path id="Vector_199" d="M22.1748 10.3591H26.943V27.563H22.1748V10.3591Z" fill="white"/>
</g>
</mask>
<g mask="url(#mask1_329_57135)">
<g id="Group_21">
<g id="Group_22">
<g id="Group_23">
<path id="Vector_200" d="M21.6354 10.9559H21.4797V6.27403L22.4103 5.34342V2.61835L21.5255 1.73355H20.8135V1.5791H21.5896L22.5661 2.55421V5.40755L21.6354 6.33816V10.9559Z" fill="white"/>
<path id="Vector_201" d="M21.589 16.613H20.627V16.4585H21.5248L22.4096 15.5737V8.16553H22.5654V15.6379L21.589 16.613Z" fill="white"/>
<path id="Vector_202" d="M22.4818 16.804C22.3365 16.804 22.2188 16.6862 22.2188 16.5409C22.2188 16.3956 22.3365 16.2778 22.4818 16.2778C22.6271 16.2778 22.7449 16.3956 22.7449 16.5409C22.7449 16.6862 22.6271 16.804 22.4818 16.804ZM22.4818 16.4323C22.4216 16.4323 22.3732 16.4807 22.3732 16.5409C22.3732 16.6011 22.4216 16.6496 22.4818 16.6496C22.542 16.6496 22.5905 16.6011 22.5905 16.5409C22.5905 16.4807 22.542 16.4323 22.4818 16.4323Z" fill="white"/>
<path id="Vector_203" d="M22.3178 12.8249C22.3178 12.9689 22.2013 13.0854 22.0573 13.0854C21.9134 13.0854 21.7969 12.9689 21.7969 12.8249C21.7969 12.6809 21.9134 12.5645 22.0573 12.5645C22.2013 12.5645 22.3178 12.6809 22.3178 12.8249Z" fill="white"/>
<path id="Vector_204" d="M22.058 12.1548C21.9127 12.1548 21.7949 12.037 21.7949 11.8917C21.7949 11.7465 21.9127 11.6287 22.058 11.6287C22.2033 11.6287 22.3211 11.7465 22.3211 11.8917C22.3224 12.0357 22.2033 12.1548 22.058 12.1548ZM22.058 11.7831C21.9978 11.7831 21.9494 11.8315 21.9494 11.8917C21.9494 11.952 21.9978 12.0004 22.058 12.0004C22.1182 12.0004 22.1666 11.952 22.1666 11.8917C22.1666 11.8315 22.1182 11.7831 22.058 11.7831Z" fill="white"/>
</g>
<g id="Group_24">
<path id="Vector_205" d="M24.1222 15.4193H23.9664V11.918L23.0371 10.9874V0.986328H23.1916V10.9233L24.1222 11.8539V15.4193Z" fill="white"/>
<path id="Vector_206" d="M25.9821 10.9559H25.8264V6.27403L26.757 5.34342V2.61835L25.8722 1.73355H25.1602V1.5791H25.9363L26.9114 2.55421V5.40755L25.9821 6.33816V10.9559Z" fill="white"/>
<path id="Vector_207" d="M25.9357 16.613H24.9736V16.4585H25.8715L26.7563 15.5737V8.16553H26.9108V15.6379L25.9357 16.613Z" fill="white"/>
<path id="Vector_208" d="M25.9815 14.6757H25.8257V13.7779L24.8964 12.8473V9.12744L23.9658 8.19814V5.34348L24.9187 4.39062L25.0286 4.50057L24.1216 5.40762V8.134L25.0509 9.0633V12.7831L25.9815 13.7137V14.6757Z" fill="white"/>
<path id="Vector_209" d="M24.0434 15.8694C23.8981 15.8694 23.7803 15.7516 23.7803 15.6063C23.7803 15.4611 23.8981 15.3433 24.0434 15.3433C24.1886 15.3433 24.3064 15.4611 24.3064 15.6063C24.3077 15.7503 24.1886 15.8694 24.0434 15.8694ZM24.0434 15.4977C23.9831 15.4977 23.9347 15.5461 23.9347 15.6063C23.9347 15.6666 23.9831 15.715 24.0434 15.715C24.1036 15.715 24.152 15.6666 24.152 15.6063C24.152 15.5461 24.1036 15.4977 24.0434 15.4977Z" fill="white"/>
<path id="Vector_210" d="M24.974 15.8694C24.8287 15.8694 24.7109 15.7516 24.7109 15.6063C24.7109 15.4611 24.8287 15.3433 24.974 15.3433C25.1193 15.3433 25.2371 15.4611 25.2371 15.6063C25.2371 15.7503 25.1193 15.8694 24.974 15.8694ZM24.974 15.4977C24.9138 15.4977 24.8654 15.5461 24.8654 15.6063C24.8654 15.6666 24.9138 15.715 24.974 15.715C25.0342 15.715 25.0827 15.6666 25.0827 15.6063C25.0827 15.5461 25.0342 15.4977 24.974 15.4977Z" fill="white"/>
<path id="Vector_211" d="M24.974 14.9388C24.8287 14.9388 24.7109 14.821 24.7109 14.6757C24.7109 14.5304 24.8287 14.4126 24.974 14.4126C25.1193 14.4126 25.2371 14.5304 25.2371 14.6757C25.2371 14.821 25.1193 14.9388 24.974 14.9388ZM24.974 14.567C24.9138 14.567 24.8654 14.6155 24.8654 14.6757C24.8654 14.7359 24.9138 14.7843 24.974 14.7843C25.0342 14.7843 25.0827 14.7359 25.0827 14.6757C25.0827 14.6155 25.0342 14.567 24.974 14.567Z" fill="white"/>
<path id="Vector_212" d="M25.893 15.8694C25.7477 15.8694 25.6299 15.7516 25.6299 15.6063C25.6299 15.4611 25.7477 15.3433 25.893 15.3433C26.0383 15.3433 26.1561 15.4611 26.1561 15.6063C26.1561 15.7503 26.0383 15.8694 25.893 15.8694ZM25.893 15.4977C25.8328 15.4977 25.7843 15.5461 25.7843 15.6063C25.7843 15.6666 25.8328 15.715 25.893 15.715C25.9532 15.715 26.0016 15.6666 26.0016 15.6063C26.0016 15.5461 25.9532 15.4977 25.893 15.4977Z" fill="white"/>
<path id="Vector_213" d="M26.8285 16.804C26.6832 16.804 26.5654 16.6862 26.5654 16.5409C26.5654 16.3956 26.6832 16.2778 26.8285 16.2778C26.9738 16.2778 27.0916 16.3956 27.0916 16.5409C27.0916 16.6862 26.9738 16.804 26.8285 16.804ZM26.8285 16.4323C26.7683 16.4323 26.7199 16.4807 26.7199 16.5409C26.7199 16.6011 26.7683 16.6496 26.8285 16.6496C26.8887 16.6496 26.9372 16.6011 26.9372 16.5409C26.9372 16.4807 26.8874 16.4323 26.8285 16.4323Z" fill="white"/>
<path id="Vector_214" d="M25.9027 11.4048C25.7574 11.4048 25.6396 11.287 25.6396 11.1417C25.6396 10.9965 25.7574 10.8787 25.9027 10.8787C26.048 10.8787 26.1658 10.9965 26.1658 11.1417C26.1671 11.287 26.048 11.4048 25.9027 11.4048ZM25.9027 11.0331C25.8425 11.0331 25.7941 11.0815 25.7941 11.1417C25.7941 11.202 25.8425 11.2504 25.9027 11.2504C25.9629 11.2504 26.0114 11.202 26.0114 11.1417C26.0114 11.0815 25.9629 11.0331 25.9027 11.0331Z" fill="white"/>
<path id="Vector_215" d="M24.0434 11.4048C23.8981 11.4048 23.7803 11.287 23.7803 11.1417C23.7803 10.9965 23.8981 10.8787 24.0434 10.8787C24.1886 10.8787 24.3064 10.9965 24.3064 11.1417C24.3077 11.287 24.1886 11.4048 24.0434 11.4048ZM24.0434 11.0331C23.9831 11.0331 23.9347 11.0815 23.9347 11.1417C23.9347 11.202 23.9831 11.2504 24.0434 11.2504C24.1036 11.2504 24.152 11.202 24.152 11.1417C24.152 11.0815 24.1036 11.0331 24.0434 11.0331Z" fill="white"/>
<path id="Vector_216" d="M24.9741 16.5356C24.9741 16.6796 24.8576 16.7961 24.7136 16.7961C24.5696 16.7961 24.4531 16.6796 24.4531 16.5356C24.4531 16.3916 24.5696 16.2751 24.7136 16.2751C24.8576 16.2751 24.9741 16.3916 24.9741 16.5356Z" fill="white"/>
<path id="Vector_217" d="M24.3041 16.5356C24.3041 16.6796 24.1876 16.7961 24.0437 16.7961C23.8997 16.7961 23.7832 16.6796 23.7832 16.5356C23.7832 16.3916 23.8997 16.2751 24.0437 16.2751C24.1876 16.2751 24.3041 16.3916 24.3041 16.5356Z" fill="white"/>
<path id="Vector_218" d="M26.1635 14.9362C26.1635 15.0802 26.047 15.1967 25.903 15.1967C25.7591 15.1967 25.6426 15.0802 25.6426 14.9362C25.6426 14.7923 25.7591 14.6758 25.903 14.6758C26.047 14.6758 26.1635 14.7923 26.1635 14.9362Z" fill="white"/>
<path id="Vector_219" d="M26.6645 12.8249C26.6645 12.9689 26.548 13.0854 26.404 13.0854C26.26 13.0854 26.1436 12.9689 26.1436 12.8249C26.1436 12.6809 26.26 12.5645 26.404 12.5645C26.548 12.5645 26.6645 12.6809 26.6645 12.8249Z" fill="white"/>
<path id="Vector_220" d="M25.2348 13.7373C25.2348 13.8812 25.1183 13.9977 24.9743 13.9977C24.8304 13.9977 24.7139 13.8812 24.7139 13.7373C24.7139 13.5933 24.8304 13.4768 24.9743 13.4768C25.1183 13.4768 25.2348 13.5933 25.2348 13.7373Z" fill="white"/>
<path id="Vector_221" d="M23.3744 12.8249C23.3744 12.9689 23.258 13.0854 23.114 13.0854C22.97 13.0854 22.8535 12.9689 22.8535 12.8249C22.8535 12.6809 22.97 12.5645 23.114 12.5645C23.258 12.5645 23.3744 12.6809 23.3744 12.8249Z" fill="white"/>
<path id="Vector_222" d="M23.8054 16.4061L23.0371 15.6378V13.0854H23.1916V15.5736L23.9154 16.2961L23.8054 16.4061Z" fill="white"/>
<path id="Vector_223" d="M24.1216 9.16406H23.9658V10.9546H24.1216V9.16406Z" fill="white"/>
<path id="Vector_224" d="M25.6431 15.5278H25.1602V15.6836H25.6431V15.5278Z" fill="white"/>
<path id="Vector_225" d="M25.4857 12.1548C25.3405 12.1548 25.2227 12.037 25.2227 11.8917C25.2227 11.7465 25.3405 11.6287 25.4857 11.6287C25.631 11.6287 25.7488 11.7465 25.7488 11.8917C25.7488 12.0357 25.631 12.1548 25.4857 12.1548ZM25.4857 11.7831C25.4255 11.7831 25.3771 11.8315 25.3771 11.8917C25.3771 11.952 25.4255 12.0004 25.4857 12.0004C25.5459 12.0004 25.5944 11.952 25.5944 11.8917C25.5944 11.8315 25.5446 11.7831 25.4857 11.7831Z" fill="white"/>
<path id="Vector_226" d="M26.4047 12.1548C26.2594 12.1548 26.1416 12.037 26.1416 11.8917C26.1416 11.7465 26.2594 11.6287 26.4047 11.6287C26.55 11.6287 26.6678 11.7465 26.6678 11.8917C26.6678 12.0357 26.55 12.1548 26.4047 12.1548ZM26.4047 11.7831C26.3445 11.7831 26.296 11.8315 26.296 11.8917C26.296 11.952 26.3445 12.0004 26.4047 12.0004C26.4649 12.0004 26.5133 11.952 26.5133 11.8917C26.5133 11.8315 26.4649 11.7831 26.4047 11.7831Z" fill="white"/>
<path id="Vector_227" d="M26.1548 11.8132H25.6719V11.969H26.1548V11.8132Z" fill="white"/>
</g>
</g>
<g id="Group_25">
<g id="Group_26">
<path id="Vector_228" d="M21.6354 27.3416H21.4797V22.6598L22.4103 21.7305V19.0041L21.5255 18.1193H20.8135V17.9648H21.5896L22.5661 18.94V21.7946L21.6354 22.7239V27.3416Z" fill="white"/>
<path id="Vector_229" d="M21.589 32.9986H20.627V32.8442H21.5248L22.4096 31.9594V24.5525H22.5654V32.0235L21.589 32.9986Z" fill="white"/>
<path id="Vector_230" d="M22.4867 18.3064C22.3414 18.3064 22.2236 18.1886 22.2236 18.0434C22.2236 17.8981 22.3414 17.7803 22.4867 17.7803C22.632 17.7803 22.7498 17.8981 22.7498 18.0434C22.7498 18.1886 22.632 18.3064 22.4867 18.3064ZM22.4867 17.9334C22.4265 17.9334 22.3781 17.9818 22.3781 18.042C22.3781 18.1023 22.4265 18.1507 22.4867 18.1507C22.5469 18.1507 22.5954 18.1023 22.5954 18.042C22.5954 17.9818 22.5469 17.9334 22.4867 17.9334Z" fill="white"/>
<path id="Vector_231" d="M22.4867 24.6297C22.3414 24.6297 22.2236 24.5119 22.2236 24.3666C22.2236 24.2213 22.3414 24.1035 22.4867 24.1035C22.632 24.1035 22.7498 24.2213 22.7498 24.3666C22.7511 24.5119 22.632 24.6297 22.4867 24.6297ZM22.4867 24.258C22.4265 24.258 22.3781 24.3064 22.3781 24.3666C22.3781 24.4268 22.4265 24.4752 22.4867 24.4752C22.5469 24.4752 22.5954 24.4268 22.5954 24.3666C22.5954 24.3064 22.5469 24.258 22.4867 24.258Z" fill="white"/>
<path id="Vector_232" d="M19.7749 19.737H19.6191V18.0106L20.5956 17.0342H21.589L22.356 17.8012L22.246 17.9111L21.5249 17.1899H20.6597L19.7749 18.0747V19.737Z" fill="white"/>
</g>
<g id="Group_27">
<path id="Vector_233" d="M24.1222 31.8049H23.9664V28.3037L23.0371 27.3744V17.3733H23.1916V27.3089L24.1222 28.2396V31.8049Z" fill="white"/>
<path id="Vector_234" d="M25.9821 27.3416H25.8264V22.6598L26.757 21.7305V19.0041L25.8722 18.1193H25.1602V17.9648H25.9363L26.9114 18.94V21.7946L25.9821 22.7239V27.3416Z" fill="white"/>
<path id="Vector_235" d="M25.9357 32.9986H24.9736V32.8442H25.8715L26.7563 31.9594V24.5525H26.9108V32.0235L25.9357 32.9986Z" fill="white"/>
<path id="Vector_236" d="M25.9815 31.0614H25.8257V30.1635L24.8964 29.2342V25.5144L23.9658 24.5838V21.7304L24.9187 20.7776L25.0286 20.8875L24.1216 21.7946V24.5197L25.0509 25.4503V29.1688L25.9815 30.0994V31.0614Z" fill="white"/>
<path id="Vector_237" d="M24.974 18.3064C24.8287 18.3064 24.7109 18.1886 24.7109 18.0434C24.7109 17.8981 24.8287 17.7803 24.974 17.7803C25.1193 17.7803 25.2371 17.8981 25.2371 18.0434C25.2371 18.1886 25.1193 18.3064 24.974 18.3064ZM24.974 17.9334C24.9138 17.9334 24.8654 17.9818 24.8654 18.042C24.8654 18.1023 24.9138 18.1507 24.974 18.1507C25.0342 18.1507 25.0827 18.1023 25.0827 18.042C25.0827 17.9818 25.0342 17.9334 24.974 17.9334Z" fill="white"/>
<path id="Vector_238" d="M24.974 24.0237C24.8287 24.0237 24.7109 23.9059 24.7109 23.7606C24.7109 23.6154 24.8287 23.4976 24.974 23.4976C25.1193 23.4976 25.2371 23.6154 25.2371 23.7606C25.2371 23.9046 25.1193 24.0237 24.974 24.0237ZM24.974 23.652C24.9138 23.652 24.8654 23.7004 24.8654 23.7606C24.8654 23.8208 24.9138 23.8693 24.974 23.8693C25.0342 23.8693 25.0827 23.8208 25.0827 23.7606C25.0827 23.7004 25.0342 23.652 24.974 23.652Z" fill="white"/>
<path id="Vector_239" d="M26.8334 18.3064C26.6881 18.3064 26.5703 18.1886 26.5703 18.0434C26.5703 17.8981 26.6881 17.7803 26.8334 17.7803C26.9787 17.7803 27.0965 17.8981 27.0965 18.0434C27.0965 18.1886 26.9787 18.3064 26.8334 18.3064ZM26.8334 17.9334C26.7732 17.9334 26.7248 17.9818 26.7248 18.042C26.7248 18.1023 26.7732 18.1507 26.8334 18.1507C26.8936 18.1507 26.942 18.1023 26.942 18.042C26.942 17.9818 26.8923 17.9334 26.8334 17.9334Z" fill="white"/>
<path id="Vector_240" d="M26.8334 24.6297C26.6881 24.6297 26.5703 24.5119 26.5703 24.3666C26.5703 24.2213 26.6881 24.1035 26.8334 24.1035C26.9787 24.1035 27.0965 24.2213 27.0965 24.3666C27.0965 24.5119 26.9787 24.6297 26.8334 24.6297ZM26.8334 24.258C26.7732 24.258 26.7248 24.3064 26.7248 24.3666C26.7248 24.4268 26.7732 24.4752 26.8334 24.4752C26.8936 24.4752 26.942 24.4268 26.942 24.3666C26.942 24.3064 26.8923 24.258 26.8334 24.258Z" fill="white"/>
<path id="Vector_241" d="M25.9027 27.7918C25.7574 27.7918 25.6396 27.674 25.6396 27.5287C25.6396 27.3834 25.7574 27.2656 25.9027 27.2656C26.048 27.2656 26.1658 27.3834 26.1658 27.5287C26.1671 27.6727 26.048 27.7918 25.9027 27.7918ZM25.9027 27.4188C25.8425 27.4188 25.7941 27.4672 25.7941 27.5274C25.7941 27.5876 25.8425 27.636 25.9027 27.636C25.9629 27.636 26.0114 27.5876 26.0114 27.5274C26.0114 27.4672 25.9629 27.4188 25.9027 27.4188Z" fill="white"/>
<path id="Vector_242" d="M24.0434 27.7918C23.8981 27.7918 23.7803 27.674 23.7803 27.5287C23.7803 27.3834 23.8981 27.2656 24.0434 27.2656C24.1886 27.2656 24.3064 27.3834 24.3064 27.5287C24.3077 27.6727 24.1886 27.7918 24.0434 27.7918ZM24.0434 27.4188C23.9831 27.4188 23.9347 27.4672 23.9347 27.5274C23.9347 27.5876 23.9831 27.636 24.0434 27.636C24.1036 27.636 24.152 27.5876 24.152 27.5274C24.152 27.4672 24.1036 27.4188 24.0434 27.4188Z" fill="white"/>
<path id="Vector_243" d="M24.0434 25.6282C23.8981 25.6282 23.7803 25.5104 23.7803 25.3651C23.7803 25.2198 23.8981 25.1021 24.0434 25.1021C24.1886 25.1021 24.3064 25.2198 24.3064 25.3651C24.3077 25.5104 24.1886 25.6282 24.0434 25.6282ZM24.0434 25.2565C23.9831 25.2565 23.9347 25.3049 23.9347 25.3651C23.9347 25.4253 23.9831 25.4738 24.0434 25.4738C24.1036 25.4738 24.152 25.4253 24.152 25.3651C24.152 25.3049 24.1036 25.2565 24.0434 25.2565Z" fill="white"/>
<path id="Vector_244" d="M24.0434 20.1873C23.8981 20.1873 23.7803 20.0695 23.7803 19.9242C23.7803 19.7789 23.8981 19.6611 24.0434 19.6611C24.1886 19.6611 24.3064 19.7789 24.3064 19.9242C24.3077 20.0682 24.1886 20.1873 24.0434 20.1873ZM24.0434 19.8143C23.9831 19.8143 23.9347 19.8627 23.9347 19.9229C23.9347 19.9831 23.9831 20.0315 24.0434 20.0315C24.1036 20.0315 24.152 19.9831 24.152 19.9229C24.152 19.8627 24.1036 19.8143 24.0434 19.8143Z" fill="white"/>
<path id="Vector_245" d="M23.3744 17.1128C23.3744 17.2567 23.258 17.3732 23.114 17.3732C22.97 17.3732 22.8535 17.2567 22.8535 17.1128C22.8535 16.9688 22.97 16.8523 23.114 16.8523C23.258 16.8523 23.3744 16.9688 23.3744 17.1128Z" fill="white"/>
<path id="Vector_246" d="M25.2348 20.8325C25.2348 20.9765 25.1183 21.093 24.9743 21.093C24.8304 21.093 24.7139 20.9765 24.7139 20.8325C24.7139 20.6885 24.8304 20.572 24.9743 20.572C25.1183 20.572 25.2348 20.6885 25.2348 20.8325Z" fill="white"/>
<path id="Vector_247" d="M24.9743 19.2592C25.1182 19.2592 25.2348 19.1426 25.2348 18.9987C25.2348 18.8549 25.1182 18.7383 24.9743 18.7383C24.8305 18.7383 24.7139 18.8549 24.7139 18.9987C24.7139 19.1426 24.8305 19.2592 24.9743 19.2592Z" fill="white"/>
<path id="Vector_248" d="M24.1216 19.737H23.9658V18.0106L24.9409 17.0342H25.9357L26.7027 17.8012L26.5927 17.9111L25.8715 17.1899H25.0051L24.1216 18.0747V19.737Z" fill="white"/>
<path id="Vector_249" d="M24.1216 25.551H23.9658V27.3416H24.1216V25.551Z" fill="white"/>
<path id="Vector_250" d="M25.0509 23.5734H24.8965V22.6598L25.8153 21.741V19.9557L25.0496 19.19L25.1596 19.0801L25.9698 19.8916V21.8052L25.0509 22.724V23.5734Z" fill="white"/>
</g>
</g>
</g>
</g>
</g>
</g>
</g>
</g>
</g>
</svg>
